<svg xmlns="http://www.w3.org/2000/svg" height="933pt" version="1.1" viewBox="-93 0 933 933.74821" width="933pt">
<g id="surface1">
<path d="M 498.378906 482.441406 C 503.277344 482.441406 507.890625 480.132812 510.828125 476.207031 C 517.367188 467.414062 669.5625 261.226562 669.5625 171.183594 C 669.5625 76.644531 592.921875 0 498.378906 0 C 403.832031 0 327.1875 76.644531 327.1875 171.183594 C 327.1875 261.226562 479.382812 467.414062 485.933594 476.207031 C 488.859375 480.132812 493.476562 482.441406 498.378906 482.441406 Z M 498.378906 31.125 C 575.695312 31.210938 638.355469 93.867188 638.4375 171.183594 C 638.4375 231.675781 546.625 372.757812 498.378906 440.417969 C 450.125 372.792969 358.3125 231.71875 358.3125 171.183594 C 358.394531 93.867188 421.054688 31.210938 498.378906 31.125 Z M 498.378906 31.125 " style=" stroke:none;fill-rule:nonzero;fill:rgb(0%,0%,0%);fill-opacity:1;" />
<path d="M 591.753906 171.183594 C 591.753906 119.613281 549.941406 77.808594 498.378906 77.808594 C 446.808594 77.808594 405.003906 119.613281 405.003906 171.183594 C 405.003906 222.753906 446.808594 264.558594 498.378906 264.558594 C 549.925781 264.503906 591.699219 222.730469 591.753906 171.183594 Z M 436.125 171.183594 C 436.125 136.800781 464.003906 108.9375 498.378906 108.9375 C 532.757812 108.9375 560.628906 136.800781 560.628906 171.183594 C 560.628906 205.566406 532.757812 233.4375 498.378906 233.4375 C 464.003906 233.4375 436.125 205.566406 436.125 171.183594 Z M 436.125 171.183594 " style=" stroke:none;fill-rule:nonzero;fill:rgb(0%,0%,0%);fill-opacity:1;" />
<path d="M 701.757812 294.675781 C 689.863281 282.675781 676.066406 272.722656 660.921875 265.210938 L 647.078125 293.085938 C 689.351562 314.214844 716.113281 357.359375 716.246094 404.621094 L 716.246094 544.6875 C 716.246094 553.28125 709.28125 560.25 700.691406 560.25 L 311.625 560.25 L 311.625 404.621094 C 311.578125 355.546875 288.351562 309.398438 248.976562 280.125 L 327.1875 280.125 L 327.1875 249.003906 L 156.003906 249.003906 C 70.09375 249.089844 0.46875 318.710938 0.375 404.621094 L 0.375 544.6875 C 0.375 570.472656 21.28125 591.371094 47.066406 591.371094 L 327.1875 591.371094 L 327.1875 887.0625 C 327.1875 912.84375 348.09375 933.75 373.878906 933.75 C 399.660156 933.75 420.5625 912.84375 420.5625 887.0625 L 420.5625 591.371094 L 700.691406 591.371094 C 726.472656 591.371094 747.371094 570.472656 747.371094 544.6875 L 747.371094 404.621094 C 747.539062 363.339844 731.097656 323.71875 701.757812 294.675781 Z M 280.503906 560.25 L 47.066406 560.25 C 38.472656 560.25 31.5 553.28125 31.5 544.6875 L 31.5 404.621094 C 31.5 335.863281 87.238281 280.125 156.003906 280.125 C 224.757812 280.125 280.503906 335.863281 280.503906 404.621094 Z M 389.4375 887.0625 C 389.4375 895.660156 382.472656 902.625 373.878906 902.625 C 365.285156 902.625 358.3125 895.660156 358.3125 887.0625 L 358.3125 591.371094 L 389.4375 591.371094 Z M 389.4375 887.0625 " style=" stroke:none;fill-rule:nonzero;fill:rgb(0%,0%,0%);fill-opacity:1;" />
<path d="M 218.25 342.378906 L 93.75 342.378906 C 85.15625 342.378906 78.191406 349.34375 78.191406 357.9375 L 78.191406 420.1875 C 78.191406 428.78125 85.15625 435.746094 93.75 435.746094 L 218.25 435.746094 C 226.84375 435.746094 233.816406 428.78125 233.816406 420.1875 L 233.816406 357.9375 C 233.816406 349.34375 226.84375 342.378906 218.25 342.378906 Z M 202.691406 404.621094 L 109.316406 404.621094 L 109.316406 373.496094 L 202.691406 373.496094 Z M 202.691406 404.621094 " style=" stroke:none;fill-rule:nonzero;fill:rgb(0%,0%,0%);fill-opacity:1;" />
<path d="M 467.253906 497.996094 L 529.5 497.996094 L 529.5 529.121094 L 467.253906 529.121094 Z M 467.253906 497.996094 " style=" stroke:none;fill-rule:nonzero;fill:rgb(0%,0%,0%);fill-opacity:1;" />
<path d="M 545.0625 497.996094 L 576.1875 497.996094 L 576.1875 529.121094 L 545.0625 529.121094 Z M 545.0625 497.996094 " style=" stroke:none;fill-rule:nonzero;fill:rgb(0%,0%,0%);fill-opacity:1;" />
<path d="M 420.5625 497.996094 L 451.6875 497.996094 L 451.6875 529.121094 L 420.5625 529.121094 Z M 420.5625 497.996094 " style=" stroke:none;fill-rule:nonzero;fill:rgb(0%,0%,0%);fill-opacity:1;" />
</g>
</svg>