<?xml version="1.0" encoding="iso-8859-1"?>
<!-- Generator: Adobe Illustrator 19.0.0, SVG Export Plug-In . SVG Version: 6.00 Build 0)  -->
<svg version="1.1" id="Capa_1" xmlns="http://www.w3.org/2000/svg" xmlns:xlink="http://www.w3.org/1999/xlink" x="0px" y="0px"
	 viewBox="0 0 512 512" style="enable-background:new 0 0 512 512;" xml:space="preserve">
<g>
	<g>
		<path d="M361.007,121.007V91.008h29.998V0.013H121.019v90.996h29.999v29.999H0l0.125,390.981H512c0-11.693,0-370.042,0-390.981
			H361.007z M151.018,30.011h209.99V61.01h-209.99V30.011z M331.009,91.008v29.999H181.016V91.008H331.009z M331.009,360.995
			v-29.999h82.209l68.784-68.784v159.779H29.816l0.208-159.714l69.832,68.719h81.161v29.999H331.009z M211.015,330.996v-29.999
			h89.996v29.999H211.015z M482.001,481.989H29.982l-0.083-29.999h452.103V481.989z M482.001,219.789l-81.209,81.209h-69.784
			v-29.999H181.016v29.999h-68.832L30.024,219.97l-0.233-68.965c9.197,0,433.47,0,452.211,0V219.789z"/>
	</g>
</g>
<g>
</g>
<g>
</g>
<g>
</g>
<g>
</g>
<g>
</g>
<g>
</g>
<g>
</g>
<g>
</g>
<g>
</g>
<g>
</g>
<g>
</g>
<g>
</g>
<g>
</g>
<g>
</g>
<g>
</g>
</svg>
