<?xml version="1.0" encoding="iso-8859-1"?>
<!-- Generator: Adobe Illustrator 19.0.0, SVG Export Plug-In . SVG Version: 6.00 Build 0)  -->
<svg version="1.1" id="Capa_1" xmlns="http://www.w3.org/2000/svg" xmlns:xlink="http://www.w3.org/1999/xlink" x="0px" y="0px"
	 viewBox="0 0 490 490" style="enable-background:new 0 0 490 490;" xml:space="preserve">
<path id="XMLID_91_" d="M290,262.5c0-8.284,6.716-15,15-15s15,6.716,15,15v5c0,8.284-6.716,15-15,15s-15-6.716-15-15V262.5z
	 M275,297.5c-8.284,0-15,6.716-15,15v5c0,8.284,6.716,15,15,15s15-6.716,15-15v-5C290,304.216,283.284,297.5,275,297.5z M215,297.5
	c-8.284,0-15,6.716-15,15v5c0,8.284,6.716,15,15,15s15-6.716,15-15v-5C230,304.216,223.284,297.5,215,297.5z M230,267.5
	c0,8.284,6.716,15,15,15s15-6.716,15-15v-5c0-8.284-6.716-15-15-15s-15,6.716-15,15V267.5z M185,282.5c8.284,0,15-6.716,15-15v-5
	c0-8.284-6.716-15-15-15s-15,6.716-15,15v5C170,275.784,176.716,282.5,185,282.5z M460,450c0,22.056-17.944,40-40,40h-10
	c-18.604,0-34.283-12.767-38.734-30H118.734c-4.451,17.233-20.13,30-38.734,30H70c-22.056,0-40-17.944-40-40
	c0,0,0.098-6.973,0.292-7.942l25.176-125.883C59.66,295.214,78.218,280,99.594,280h11.233c-0.547-4.927-0.828-9.93-0.828-15
	c0-48.828,26.061-91.687,65-115.397V100h-31.459c-17.154,0-32.577-9.532-40.25-24.875L81.583,31.708C80.542,29.625,80,27.329,80,25
	V15c0-8.284,6.716-15,15-15h300c8.284,0,15,6.716,15,15v10c0,2.329-0.542,4.625-1.584,6.708l-21.708,43.417
	C379.036,90.468,363.613,100,346.459,100H315v49.603c38.939,23.71,65,66.569,65,115.397c0,5.07-0.28,10.073-0.828,15h11.234
	c21.376,0,39.934,15.214,44.126,36.175l25.177,125.883C459.902,443.027,460,450,460,450z M346.459,70
	c5.719,0,10.859-3.177,13.417-8.292L375.729,30H114.271l15.854,31.708c2.557,5.114,7.698,8.292,13.417,8.292H346.459z M205,100
	v36.048c12.645-3.931,26.079-6.048,40-6.048s27.355,2.118,40,6.048V100H205z M140,265c0,57.897,47.103,105,105,105
	c57.897,0,105-47.103,105-105s-47.103-105-105-105C187.103,160,140,207.103,140,265z M430,446.485l-24.886-124.427
	c-1.397-6.987-7.583-12.059-14.708-12.059h-18.117c-18.572,52.383-68.62,90-127.289,90s-108.716-37.617-127.289-90H99.594
	c-7.125,0-13.312,5.071-14.709,12.059L60,446.485V450c0,5.514,4.486,10,10,10h10c5.514,0,10-4.486,10-10v-5c0-8.284,6.716-15,15-15
	h280c8.284,0,15,6.716,15,15v5c0,5.514,4.486,10,10,10h10c5.514,0,10-4.486,10-10V446.485z M275,232.5c8.284,0,15-6.716,15-15v-5
	c0-8.284-6.716-15-15-15s-15,6.716-15,15v5C260,225.784,266.716,232.5,275,232.5z M215,232.5c8.284,0,15-6.716,15-15v-5
	c0-8.284-6.716-15-15-15s-15,6.716-15,15v5C200,225.784,206.716,232.5,215,232.5z"/>
<g>
</g>
<g>
</g>
<g>
</g>
<g>
</g>
<g>
</g>
<g>
</g>
<g>
</g>
<g>
</g>
<g>
</g>
<g>
</g>
<g>
</g>
<g>
</g>
<g>
</g>
<g>
</g>
<g>
</g>
</svg>
