<?xml version="1.0" encoding="iso-8859-1"?>
<!-- Generator: Adobe Illustrator 21.0.0, SVG Export Plug-In . SVG Version: 6.00 Build 0)  -->
<svg xmlns="http://www.w3.org/2000/svg" xmlns:xlink="http://www.w3.org/1999/xlink" version="1.1" id="Capa_1" x="0px" y="0px" viewBox="0 0 512 512" style="enable-background:new 0 0 512 512;" xml:space="preserve" width="512" height="512">
<g>
	<rect x="62.85" y="264.174" width="61.979" height="29.852"/>
	<path d="M441.335,252.694v-6.471c0-23.024-14.428-42.731-34.713-50.587l-7.553-20.674h40.157v-29.852h-51.063L354.897,54.05H86.439   l-33.267,91.059H2.109v29.852h40.157l-7.553,20.674C14.428,203.492,0,223.198,0,246.222v79.053   c0,18.134,12.805,33.327,29.845,37.031v16.517c0,26.845,21.84,48.685,48.685,48.685h7.622c26.845,0,48.685-21.84,48.685-48.685   v-15.646h166.511c5.439,53.161,50.476,94.773,105.05,94.773C464.627,457.95,512,410.577,512,352.349   C512,306.359,482.446,267.149,441.335,252.694z M107.315,83.902h226.706l39.487,108.084H67.828L107.315,83.902z M104.986,378.823   c0,10.384-8.449,18.833-18.833,18.833H78.53c-10.384,0-18.833-8.449-18.833-18.833v-15.646h45.289V378.823z M184.214,333.325   v-39.299h72.908v39.299H184.214z M154.362,264.174v69.151H37.901c-4.438,0-8.049-3.611-8.049-8.049v-79.053   c0-13.446,10.939-24.385,24.385-24.385h332.862c13.446,0,24.385,10.939,24.385,24.385v0.649c-1.686-0.08-3.38-0.125-5.086-0.125   c-51.735,0-94.897,37.397-103.881,86.578h-15.544v-69.151H154.362z M406.398,428.098c-41.769,0-75.75-33.981-75.75-75.75   s33.981-75.75,75.75-75.75s75.75,33.982,75.75,75.75S448.167,428.098,406.398,428.098z"/>
	<polygon points="440.538,317.509 397.95,354.97 377.134,331.566 354.829,351.405 395.375,396.992 460.254,339.923  "/>
</g>















</svg>
