<svg height="1331pt" viewBox="-154 -41 1331 1331.2499" width="1331pt" xmlns="http://www.w3.org/2000/svg"><path d="m765.882812 782.703125c29.460938-44.011719 48.226563-95.75 52.484376-151.5h.925781c53.765625 0 97.507812-43.734375 97.507812-97.5 0-45.351563-31.128906-83.566406-73.132812-94.425781v-100.59375c0-66.683594-19.238281-128.949219-52.433594-181.5625-.769531-1.542969-1.699219-2.992188-2.78125-4.332032-60.941406-93.453124-166.375-155.371093-285.996094-155.371093-.382812 0-.761719 0-1.144531 0-74.664062 0-142.980469 16.105469-208.765625 49.214843-12.03125 6.050782-16.867187 20.707032-10.816406 32.738282 6.058593 12.015625 20.707031 16.855468 32.738281 10.816406 59.636719-30.015625 119.023438-44.015625 186.84375-44.015625h1.097656c100.0625 0 188.539063 50.523437 241.304688 127.382813-13.671875 72.394531-42.316406 101.101562-58.332032 116.804687-73.023437 65.597656-294.222656 90.460937-455.59375 51.152344-80.917968-19.722657-138.886718-53.523438-166.710937-96.558594 42.941406-16.183594 80.617187-40.929687 115.269531-65.851563 10.933594-7.859374 13.417969-23.085937 5.546875-34.015624-7.855469-10.929688-23.085937-13.414063-34.019531-5.554688-38.269531 27.53125-80.214844 54.761719-127.585938 67.441406-.4375.125-.847656.28125-1.277343.421875-.3125.113281-.636719.183594-.949219.300781-.027344.007813-.03125.011719-.046875.03125-.667969.242188-1.308594.53125-1.9375.835938-.101563.046875-.21875.085938-.320313.125-.644531.332031-1.269531.6875-1.875 1.066406-.085937.039063-.171874.082032-.261718.128906-.511719.332032-1 .691407-1.492188 1.046876-.15625.121093-.316406.230468-.488281.351562-.308594.222656-.582031.492188-.859375.738281-2.433594 2.078125-4.40625 4.59375-5.824219 7.382813-1.464843 2.839844-2.363281 5.941406-2.628906 9.191406-.027344.320312-.074219.621094-.078125.933594-.019531.265625.003906.539062 0 .804687 0 .539063-.019531 1.082031.015625 1.617188.003906.167969.035156.328125.058594.5.046875.636719.097656 1.28125.210937 1.921875.027344.179687.070313.367187.109375.546875.113281.625.234375 1.242187.40625 1.859375.003907.019531.003907.046875.003907.066406.195312.722656.425781 1.445312.683593 2.132812.019531.027344.019531.058594.03125.082032 21.636719 57.84375 74.886719 103.058594 155.375 132.601562v67.617188c-42.007812 10.859375-73.128906 49.074218-73.128906 94.425781 0 53.765625 43.75 97.5 97.507813 97.5h.917968c4.265625 55.75 23.027344 107.503906 52.507813 151.503906-153.941407 92.847657-248.433594 258.316407-248.433594 438.382813 0 13.46875 10.917969 24.375 24.375 24.375h975.042969c13.46875 0 24.375-10.90625 24.375-24.375 0-180.078125-94.492188-345.542969-248.425782-438.386719zm-629.113281 414.011719h-96.859375c5.035156-95.628906 39.511719-185.71875 96.859375-259.355469zm48.753907-312.773438c23.125-21.695312 48.644531-41.195312 76.316406-58.105468l72.855468 203.597656c2.691407 7.53125 8.890626 13.253906 16.605469 15.320312 2.089844.574219 4.230469.847656 6.339844.847656 5.683594 0 11.261719-1.992187 15.710937-5.726562l104.671876-88.148438v244.988282h-292.5zm144.929687-11.058594c33.507813 21.734376 71.359375 37.300782 111.953125 45.105469l-73.625 62.003907zm196.332031 78.84375 104.671875 88.148438c4.449219 3.746094 10.03125 5.726562 15.707031 5.726562 2.121094 0 4.25-.273437 6.34375-.847656 7.71875-2.066406 13.917969-7.789062 16.601563-15.320312l72.863281-203.605469c27.679688 16.914063 53.203125 36.414063 76.332032 58.113281v312.773438h-292.519532zm35.632813-33.738281c40.578125-7.804687 78.429687-23.371093 111.941406-45.101562l-38.332031 107.105469zm305.640625 19.371094c57.34375 73.636719 91.828125 163.722656 96.851562 259.355469h-96.851562zm-73.140625-598.675781v97.507812c-39.007813 0-61.84375-59.640625-67.714844-118.730468 14.34375-14.84375 34.191406-38.894532 49.542969-80.285157 11.738281 31.640625 18.171875 65.824219 18.171875 101.507813zm-294.265625 64.457031c75.152344-9.007813 137.917968-26.996094 182.011718-51.738281 4.382813 24.394531 11.96875 50.972656 24.921876 74.585937 13.941406 25.375 30.242187 40.296875 46.207031 48.789063l-20.964844 27.953125c-20.207031-39.441407-61.25-66.539063-108.539063-66.539063-58.855468 0-108.101562 41.949219-119.421874 97.511719h-4.910157c-11.328125-55.5625-60.574219-97.511719-119.425781-97.511719-47.285156 0-88.339844 27.097656-108.542969 66.558594l-20.792969-27.742188c20.285157-10.421874 41.496094-31.109374 56.570313-70.816406 62.476563 6.765625 129.355469 6.570313 192.886719-1.050781zm196.765625 154.9375c0 40.320313-32.800781 73.125-73.128907 73.125-40.328124 0-73.128906-32.804687-73.128906-73.125 0-40.316406 32.800782-73.128906 73.128906-73.128906 40.328126 0 73.128907 32.8125 73.128907 73.128906zm-243.757813.023437c-.019531 40.308594-32.8125 73.105469-73.128906 73.105469-40.328125 0-73.132812-32.808593-73.132812-73.125 0-40.320312 32.804687-73.125 73.132812-73.125 40.316406 0 73.117188 32.796875 73.128906 73.109375zm-235.410156-169.21875c12.816406 3.121094 26.117188 5.851563 39.714844 8.257813-11.9375 25.902344-28.039063 39.050781-48.066406 39.050781v-49.425781c2.765624.710937 5.535156 1.433594 8.351562 2.117187zm-8.351562 193.570313h-24.375c-26.882813 0-48.753907-21.871094-48.753907-48.75 0-26.886719 21.871094-48.753906 48.753907-48.753906h12.179687l61.277344 81.707031c4.421875 63.214844 57.226562 113.296875 121.539062 113.296875 58.863281 0 108.109375-41.933594 119.4375-97.5h4.910157c11.320312 55.566406 60.566406 97.5 119.421874 97.5 64.320313 0 117.128907-50.09375 121.542969-113.304687l61.273438-81.699219h12.183593c26.886719 0 48.753907 21.867187 48.753907 48.753906 0 26.878906-21.867188 48.75-48.753907 48.75h-24.371093c-13.457031 0-24.375 10.914063-24.375 24.375 0 62.527344-21.523438 120.125-57.542969 165.78125-.25.238281-3.921875 4.808594-4.039062 4.988281-49.144532 59.355469-123.324219 97.246094-206.183594 97.363282-.09375 0-.167969 0-.253906 0-.050782 0-.085938-.003907-.125-.003907-.03125 0-.078126.003907-.121094.003907-.078125 0-.152344 0-.230469 0-82.890625-.117188-157.0625-38.019532-206.222656-97.371094-.046875-.082032-3.722657-4.703125-4.054688-5.019532-36.003906-45.65625-57.503906-103.226562-57.503906-165.742187.007813-13.460937-10.898437-24.375-24.367187-24.375zm0 0"/><path d="m415.59375 1123.589844h-.570312c-13.472657 0-24.375 10.902344-24.375 24.375 0 13.46875 10.902343 24.375 24.375 24.375h.570312c13.457031 0 24.375-10.90625 24.375-24.375 0-13.472656-10.917969-24.375-24.375-24.375zm0 0"/><path d="m441.472656 758.757812c18.5 10.6875 39.570313 16.332032 60.9375 16.332032 21.363282 0 42.4375-5.644532 60.9375-16.332032 11.65625-6.734374 15.660156-21.636718 8.925782-33.292968-6.730469-11.660156-21.640626-15.660156-33.300782-8.925782-11.097656 6.40625-23.742187 9.796876-36.5625 9.796876-12.828125 0-25.453125-3.390626-36.5625-9.796876-11.664062-6.734374-26.578125-2.734374-33.296875 8.925782-6.734375 11.65625-2.738281 26.558594 8.921875 33.292968zm0 0"/><path d="m221.597656 142.535156c4.796875 0 9.628906-1.410156 13.859375-4.335937l.652344-.457031c11.066406-7.664063 13.828125-22.851563 6.160156-33.914063-7.652343-11.074219-22.84375-13.828125-33.90625-6.171875l-.652343.460938c-11.074219 7.660156-13.828126 22.839843-6.171876 33.914062 4.738282 6.835938 12.339844 10.503906 20.058594 10.503906zm0 0"/><path d="m600.480469 1123.589844h-.570313c-13.457031 0-24.375 10.902344-24.375 24.375 0 13.46875 10.917969 24.375 24.375 24.375h.570313c13.472656 0 24.378906-10.90625 24.378906-24.375 0-13.472656-10.90625-24.375-24.378906-24.375zm0 0"/><path d="m770.542969 1123.589844h-100.027344c-13.449219 0-24.375 10.902344-24.375 24.375 0 13.46875 10.925781 24.375 24.375 24.375h100.027344c13.46875 0 24.375-10.90625 24.375-24.375 0-13.472656-10.90625-24.375-24.375-24.375zm0 0"/></svg>