<?xml version="1.0" encoding="iso-8859-1"?>
<!-- Generator: Adobe Illustrator 19.0.0, SVG Export Plug-In . SVG Version: 6.00 Build 0)  -->
<svg version="1.1" id="Capa_1" xmlns="http://www.w3.org/2000/svg" xmlns:xlink="http://www.w3.org/1999/xlink" x="0px" y="0px"
	 viewBox="0 0 512 512" style="enable-background:new 0 0 512 512;" xml:space="preserve">
<g>
	<g>
		<path d="M424.985,416.273c-1.233-7.844-6.127-14.56-12.857-18.175v-45.063c7.524-4.06,12.456-11.721,13.096-20.184
			c0.047-0.624,0.075-1.252,0.075-1.885c-0.025-18.04,1.279-24.956-4.608-33.279c-2.171-3.061-5.137-5.747-8.563-7.595v-45.063
			c6.092-3.287,10.879-9.198,12.539-16.516c1.161-5.112,0.696-26.265,0.186-28.957c-1.519-8.077-6.959-14.89-14.212-18.221
			c-0.549-2.107-2.153-20.496-15.932-44.386c-22.174-37.411-54.064-48.854-61.344-52.86c-17.691-7.16-29.585-23.496-31.275-42.395
			c3.975-0.188,7.142-3.46,7.142-7.482c0-4.094-3.281-7.416-7.357-7.493V14.994c4.076-0.077,7.357-3.398,7.357-7.493
			c0-4.143-3.357-7.5-7.5-7.5h-7.357c-21.633,0-69.857,0-84.167,0c-4.143,0-7.5,3.357-7.5,7.5c0,3.687,2.662,6.745,6.167,7.375
			v11.962c-8.048,1.446-8.272,13.038-0.203,14.717c-2.839,32.759-31.657,42.656-31.758,42.736
			c-6.518,2.673-12.685,5.854-17.532,8.856c-3.543,2.145-4.678,6.756-2.532,10.301c2.145,3.543,6.758,4.677,10.301,2.532
			c6.459-3.999,12.083-6.369,15.862-7.983c23.38-9.464,38.963-31.239,40.697-56.281h63.333
			c1.752,25.304,17.609,47.106,41.105,56.456c33.667,13.8,59.736,44.02,66.997,81.58H115.606
			c3.964-20.385,13.368-38.466,26.219-52.716c2.763-3.087,2.499-7.828-0.588-10.591c-3.088-2.763-7.829-2.498-10.591,0.588
			c-3.802,4.215-6.924,8.283-9.599,12.127c-0.91,1.69-16.316,21.334-21.039,52.824c-6.04,3.207-10.94,9.094-12.686,16.458
			c-0.269,1.138-0.498,2.489-0.6,3.788c-0.138,1.77-0.289,21.674,0.308,25.07c1.27,7.248,5.628,13.398,11.592,17.052v46.421
			c-6.16,3.761-10.594,10.222-11.7,17.708c-0.406,2.746-0.252,2.784-0.28,22.487c0,8.549,4.425,16.761,11.98,21.39v46.421
			c-1.999,1.223-4.164,3.006-5.898,5.021c-3.242,3.761-5.201,8.343-5.833,12.876c-0.492,3.509-0.284,23.865,0.013,25.899
			c1.17,8.175,6.282,15.19,13.683,18.868c7.282,29.54,33.815,50.559,64.64,50.559h142.047c4.143,0,7.5-3.357,7.5-7.5
			c0-4.143-3.357-7.5-7.5-7.5H165.228c-22.117,0-41.372-13.968-48.578-34.206h277.449c-7.214,20.226-26.498,34.206-48.576,34.206
			h-3.246c-4.143,0-7.5,3.357-7.5,7.5c0,4.143,3.357,7.5,7.5,7.5h3.246c30.551,0,56.972-20.734,64.481-49.923
			c9-3.824,15.295-12.7,15.295-23.104C425.268,419.658,425.446,419.213,424.985,416.273z M286.875,26.713h-62.999V15.001h62.999
			V26.713z M101.933,201.782c0.689-2.821,2.638-5.395,5.556-6.771c0.199-0.093,0.401-0.18,0.607-0.26h295.761
			c3.939,1.535,6.44,5.365,6.44,9.403c-0.208,18.975,0.996,21.373-2.439,25.362c-0.904,1.058-2.094,1.981-3.48,2.61
			c-2.774,0-293.622,0-296.834,0c-3.194-1.45-5.347-4.444-5.8-7.792C101.653,223.669,101.43,203.834,101.933,201.782z
			 M397.127,247.128v40.867h-40.548v-40.867H397.127z M356.578,355.133h40.548v40.519h-40.548V355.133z M341.577,247.127
			c0,17.027,0,130.53,0,148.526H170.364c0-16.6,0-135.186,0-148.526H341.577z M107.544,340.134c-3.687-1.681-5.9-5.342-5.9-9.167
			c0.038-19.663-0.183-19.554,0.395-21.574c0.776-2.718,2.702-5.122,5.506-6.397h47.818v37.138H107.544z M155.363,355.133v40.519
			h-41.739v-40.519H155.363z M113.624,287.994v-40.867h41.739v40.867H113.624z M405.099,447.792H106.874
			c-3.242-1.776-5.23-5.207-5.23-8.818c0.379-17.349-2.299-25.146,6.757-28.319c1.844,0,293.709,0,295.129,0
			c4.458,1.725,6.767,5.549,6.767,9.514C410.259,442.635,411.463,443.001,405.099,447.792z M404.378,340.133h-47.8v-37.138h47.8
			c3.706,1.681,5.919,5.355,5.919,9.166C410.099,330.304,412.089,336.636,404.378,340.133z"/>
	</g>
</g>
<g>
	<g>
		<path d="M296.776,324.617c-1.131-3.986-5.277-6.301-9.264-5.167c-3.985,1.131-6.298,5.278-5.167,9.264
			c3.366,11.859-1.628,24.646-12.145,31.097c-4.31,2.643-9.245,4.056-14.19,4.082c-5.025-0.026-9.961-1.439-14.272-4.083
			c-12.993-7.969-17.081-25.023-9.111-38.018l23.342-38.057l10.021,16.338c2.167,3.53,6.785,4.638,10.316,2.473
			c3.531-2.166,4.638-6.784,2.473-10.315l-14.557-23.734c-1.775-2.89-4.859-4.615-8.252-4.615c-3.392,0-6.476,1.725-8.253,4.619
			l-27.877,45.45c-5.955,9.71-7.773,21.157-5.118,32.235c2.654,11.077,9.465,20.457,19.174,26.412
			c6.647,4.078,14.268,6.255,22.114,6.297c7.767-0.042,15.387-2.219,22.034-6.296C294.269,362.646,301.971,342.915,296.776,324.617z
			"/>
	</g>
</g>
<g>
</g>
<g>
</g>
<g>
</g>
<g>
</g>
<g>
</g>
<g>
</g>
<g>
</g>
<g>
</g>
<g>
</g>
<g>
</g>
<g>
</g>
<g>
</g>
<g>
</g>
<g>
</g>
<g>
</g>
</svg>
