<?xml version="1.0" encoding="iso-8859-1"?>
<!-- Generator: Adobe Illustrator 19.0.0, SVG Export Plug-In . SVG Version: 6.00 Build 0)  -->
<svg version="1.1" id="Capa_1" xmlns="http://www.w3.org/2000/svg" xmlns:xlink="http://www.w3.org/1999/xlink" x="0px" y="0px"
	 viewBox="0 0 511.998 511.998" style="enable-background:new 0 0 511.998 511.998;" xml:space="preserve">
<g>
	<g>
		<path d="M212.798,438.92c-8.767-4.301-14.213-13.035-14.213-22.791V249.489c0-19.799,5.295-39.219,15.314-56.161
			c2.108-3.565,0.927-8.165-2.639-10.273c-3.565-2.107-8.164-0.928-10.273,2.638c-11.384,19.253-17.402,41.314-17.402,63.797
			v166.641c0,15.524,8.661,29.417,22.606,36.258c1.063,0.522,2.189,0.768,3.298,0.768c2.771,0,5.437-1.542,6.739-4.198
			C218.052,445.238,216.517,440.745,212.798,438.92z"/>
	</g>
</g>
<g>
	<g>
		<path d="M419.916,165.017c-20.932-22.987-49.431-37.336-80.246-40.406c-4.128-0.416-7.797,2.597-8.206,6.72
			c-0.413,4.121,2.595,7.795,6.718,8.205c27.121,2.702,52.209,15.337,70.642,35.579c18.554,20.376,28.772,46.788,28.772,74.372
			v166.641c0,9.851-5.779,18.893-14.724,23.035c-3.759,1.741-5.395,6.199-3.654,9.957c1.269,2.738,3.979,4.35,6.811,4.35
			c1.055,0,2.127-0.224,3.147-0.696c14.229-6.588,23.421-20.974,23.421-36.647v-166.64
			C452.597,218.161,440.992,188.161,419.916,165.017z"/>
	</g>
</g>
<g>
	<g>
		<path d="M456.015,499.893c-25.203-32.395-60.677-54.761-100.424-63.457v-23.171c32.278-12.427,55.252-43.749,55.252-80.352V274.25
			c0-2.409-1.157-4.672-3.111-6.082c-1.953-1.41-4.464-1.795-6.752-1.037c-3.714,1.233-7.629,1.858-11.637,1.858
			c-19.4,0-35.714-15.13-37.142-34.444c-0.254-3.439-2.821-6.262-6.222-6.841c-3.402-0.585-6.756,1.236-8.134,4.398
			c-16.777,38.507-54.757,63.388-96.758,63.388c-2.545,0-5.145-0.091-7.727-0.272c-0.085-0.006-0.17-0.001-0.255-0.005
			c-0.09-0.003-0.177-0.013-0.268-0.013H217.33c-4.143,0-7.5,3.358-7.5,7.5c0,4.142,3.357,7.5,7.5,7.5h8.005v22.711
			c0,36.603,22.974,67.925,55.252,80.352v23.171c-39.746,8.696-75.22,31.062-100.424,63.457c-2.543,3.269-1.955,7.981,1.314,10.525
			c3.27,2.543,7.98,1.956,10.525-1.314c24.228-31.141,58.826-52.145,97.422-59.141c3.567-0.647,6.162-3.754,6.162-7.38v-25.042
			c0.589,0.11,1.183,0.191,1.774,0.288c0.477,0.079,0.952,0.161,1.432,0.232c0.903,0.133,1.81,0.242,2.718,0.346
			c0.49,0.056,0.977,0.121,1.47,0.169c0.964,0.094,1.931,0.16,2.899,0.221c0.436,0.028,0.868,0.069,1.306,0.09
			c1.406,0.068,2.815,0.107,4.227,0.107h0.004h13.341h0.004c1.412,0,2.821-0.039,4.227-0.107c0.438-0.021,0.87-0.062,1.306-0.09
			c0.968-0.062,1.936-0.127,2.899-0.221c0.492-0.048,0.98-0.113,1.47-0.169c0.908-0.104,1.815-0.214,2.718-0.346
			c0.479-0.071,0.955-0.153,1.432-0.232c0.591-0.097,1.185-0.178,1.774-0.288v25.042c0,3.626,2.595,6.733,6.162,7.38
			c38.596,6.996,73.194,28,97.422,59.141c1.479,1.9,3.69,2.895,5.925,2.895c1.609,0,3.231-0.516,4.601-1.581
			C457.971,507.875,458.559,503.163,456.015,499.893z M342.511,401.752c-0.007,0.002-0.014,0.003-0.022,0.005
			c-1.06,0.273-2.131,0.518-3.208,0.742c-0.123,0.025-0.246,0.052-0.369,0.077c-2.179,0.442-4.395,0.782-6.641,1.019
			c-0.247,0.026-0.496,0.046-0.744,0.07c-0.853,0.081-1.711,0.146-2.573,0.196c-0.3,0.017-0.599,0.037-0.899,0.05
			c-1.093,0.05-2.189,0.084-3.294,0.084H311.42c-1.104,0-2.201-0.033-3.294-0.084c-0.3-0.014-0.599-0.033-0.899-0.05
			c-0.862-0.05-1.72-0.115-2.573-0.196c-0.248-0.023-0.497-0.044-0.744-0.07c-2.246-0.237-4.462-0.577-6.641-1.019
			c-0.123-0.025-0.246-0.052-0.369-0.077c-1.078-0.225-2.149-0.469-3.208-0.742c-0.007-0.002-0.015-0.003-0.022-0.005
			c-30.634-7.904-53.332-35.77-53.332-68.839V310.49c41.797,0.255,80.191-21.064,102.24-55.492
			c8.626,17.214,26.495,28.993,46.766,28.993c2.186,0,4.356-0.134,6.5-0.4v49.322C395.843,365.981,373.145,393.848,342.511,401.752z
			"/>
	</g>
</g>
<g>
	<g>
		<path d="M295.449,54.397l-5.27-21.351c-2.952-11.96-10.881-22.145-21.752-27.94c-10.869-5.795-23.742-6.703-35.321-2.49
			l-60.449,22.001C115.413,45.451,72.272,99.933,54.912,144.685c-1.498,3.861,0.418,8.206,4.279,9.705
			c3.86,1.499,8.207-0.418,9.705-4.28c8.14-20.983,22.55-43.829,39.534-62.679c20.588-22.85,44.57-39.697,69.357-48.717
			l60.449-22.001c7.58-2.76,16.014-2.166,23.133,1.63c7.12,3.796,12.313,10.466,14.247,18.3l3.655,14.81l-5.727,2.084
			c-0.002,0.001-0.004,0.001-0.007,0.002L207.373,77.62c-0.003,0.001-0.006,0.002-0.008,0.003l-3.301,1.202l-6.861-5.796
			c-2.053-1.735-4.879-2.238-7.405-1.318c-35.584,12.951-67.082,31.904-105.142,82.305c-2.496,3.306-1.84,8.009,1.466,10.505
			c1.353,1.021,2.939,1.515,4.514,1.515c2.271,0,4.517-1.028,5.991-2.981c34.522-45.718,61.996-63.436,94.246-75.738l6.832,5.771
			c2.054,1.735,4.878,2.237,7.405,1.318l0.347-0.126l5.803,15.945c0.681,1.869,2.075,3.392,3.878,4.232
			c1.003,0.467,2.085,0.703,3.17,0.703c0.867,0,1.735-0.15,2.565-0.452l66.164-24.082c3.892-1.417,5.899-5.721,4.482-9.613
			l-5.803-15.945l5.017-1.826C294.334,61.931,296.368,58.117,295.449,54.397z M222.79,98.047l-3.237-8.896L271.62,70.2l3.237,8.896
			L222.79,98.047z"/>
	</g>
</g>
<g>
	<g>
		<path d="M279.548,151.06l-14.311-39.322c-1.415-3.892-5.721-5.902-9.611-4.483c-3.893,1.417-5.899,5.72-4.483,9.613l14.31,39.322
			c1.108,3.046,3.984,4.937,7.049,4.937c0.851,0,1.718-0.146,2.563-0.454C278.958,159.257,280.964,154.953,279.548,151.06z"/>
	</g>
</g>
<g>
	<g>
		<path d="M238.317,151.395l-1.44-27.011c-0.22-4.136-3.76-7.314-7.888-7.09c-4.137,0.221-7.311,3.752-7.09,7.889l1.44,27.011
			c0.213,4,3.524,7.101,7.482,7.101c0.135,0,0.271-0.003,0.406-0.011C235.364,159.063,238.538,155.532,238.317,151.395z"/>
	</g>
</g>
<g>
	<g>
		<path d="M310.657,125.776l-19.421-25.83c-2.489-3.31-7.19-3.977-10.502-1.488c-3.311,2.489-3.977,7.191-1.488,10.502
			l19.421,25.831c1.475,1.96,3.724,2.993,6.001,2.993c1.568,0,3.15-0.49,4.501-1.506
			C312.48,133.789,313.146,129.087,310.657,125.776z"/>
	</g>
</g>
<g>
</g>
<g>
</g>
<g>
</g>
<g>
</g>
<g>
</g>
<g>
</g>
<g>
</g>
<g>
</g>
<g>
</g>
<g>
</g>
<g>
</g>
<g>
</g>
<g>
</g>
<g>
</g>
<g>
</g>
</svg>
