<svg height="511pt" viewBox="0 -62 511.99971 511" width="511pt" xmlns="http://www.w3.org/2000/svg"><path d="m510.355469 317.183594-25.867188-43.765625h5.175781c4.039063 0 7.523438-1.898438 9.316407-5.082031 1.789062-3.179688 1.605469-7.144532-.492188-10.597657l-24.558593-40.476562h4.085937c4.070313 0 7.554687-1.914063 9.324219-5.125 1.769531-3.210938 1.527344-7.179688-.648438-10.625l-40.136718-63.523438c-1.722657-2.722656-4.238282-4.480469-7.082032-5.035156-7.507812-30.664063-23.179687-58.769531-45.921875-81.625-2.921875-2.9375-7.671875-2.949219-10.609375-.027344-2.933594 2.921875-2.945312 7.671875-.023437 10.609375 6.21875 6.25 11.859375 12.929688 16.894531 19.972656h-55.5625c-7.808594-25.71875-18.8125-46.757812-31.960938-61 14.660157 3.9375 28.734376 9.992188 41.761719 18.070313 3.519531 2.183594 8.144531 1.101563 10.328125-2.417969 2.183594-3.519531 1.101563-8.144531-2.421875-10.328125-27.113281-16.816406-58.34375-25.707031-90.308593-25.707031-76.382813 0-141.355469 50.328125-164.175782 119.898438-7.527344-2.238282-15.484375-3.457032-23.726562-3.457032-46.175782 0-83.746094 37.707032-83.746094 84.050782 0 43.6875 33.382812 79.679687 75.890625 83.667968v26.964844c0 4.140625 3.359375 7.5 7.5 7.5 4.144531 0 7.5-3.359375 7.5-7.5v-26.902344c2.761719-.238281 5.488281-.609375 8.164063-1.113281-.398438 2.660156-.609376 5.382813-.609376 8.152344 0 27.414062 20.339844 50.144531 46.671876 53.820312v26.164063h-54.226563v-24.121094c0-4.140625-3.355469-7.5-7.5-7.5-4.140625 0-7.5 3.359375-7.5 7.5v24.121094h-18.136719c-4.144531 0-7.5 3.359375-7.5 7.5 0 4.144531 3.355469 7.5 7.5 7.5h252.25c4.144532 0 7.5-3.355469 7.5-7.5 0-4.140625-3.355468-7.5-7.5-7.5h-149.890625v-26.164063c12.066407-1.683593 22.875-7.367187 31.042969-15.671875 24.058594 12.851563 51.441406 20.160156 80.496094 20.160156 26.804687 0 52.191406-6.21875 74.859375-17.269531 7.722656 6.726563 17.351562 11.300781 27.957031 12.78125v26.164063h-28.464844c-4.140625 0-7.5 3.359375-7.5 7.5 0 4.144531 3.359375 7.5 7.5 7.5h116.59375c4.140625 0 7.5-3.355469 7.5-7.5 0-4.140625-3.359375-7.5-7.5-7.5h-16.421875v-38.925782h55.257813c4.023437 0 7.503906-1.890624 9.308594-5.054687 1.804687-3.164063 1.660156-7.121094-.386719-10.582031zm-101.039063-220.300782c7.816406 14.011719 13.46875 29.128907 16.777344 44.933594l-16.410156 25.96875h-52.667969c-.503906-25.550781-3.566406-49.523437-8.699219-70.902344zm-21.59375 115.253907c1.769532 3.210937 5.253906 5.125 9.324219 5.125h4.085937l-12.484374 20.574219c-2.191407-.273438-4.417969-.429688-6.679688-.429688-12.144531 0-23.363281 4.03125-32.40625 10.824219 4.375-19.972657 6.992188-42.042969 7.453125-65.445313h43.1875l-11.835937 18.730469c-2.171876 3.441406-2.414063 7.410156-.644532 10.621094zm-228.703125 25.664062c5.421875-11.125 8.480469-23.613281 8.480469-36.808593 0-6.253907-.707031-12.339844-2.003906-18.207032h20.789062c.503906 25.550782 3.570313 49.523438 8.699219 70.902344h-3.753906c-8.425781-8.597656-19.667969-14.398438-32.210938-15.886719zm105.128907-221.34375v65.425781h-49.222657c11.523438-35.523437 29.277344-60.382812 49.222657-65.425781zm0 80.425781v70.902344h-62.859376c.546876-25.496094 3.878907-49.652344 9.304688-70.902344zm0 85.902344v70.902344h-53.554688c-5.425781-21.25-8.757812-45.40625-9.304688-70.902344zm0 85.902344v65.425781c-19.945313-5.046875-37.699219-29.902343-49.222657-65.425781zm68.558593-15h-53.558593v-70.902344h62.859374c-.546874 25.5-3.878906 49.65625-9.300781 70.902344zm-4.335937 15c-11.523438 35.523438-29.273438 60.378906-49.222656 65.425781v-65.425781zm1.070312 36.34375c1.441406 5.746094 3.804688 11.125 6.90625 15.984375-7.71875 3.523437-15.765625 6.4375-24.082031 8.679687 6.246094-6.761718 12.007813-15.058593 17.175781-24.664062zm12.570313-137.246094h-62.859375v-70.902344h53.554687c5.421875 21.25 8.753907 45.40625 9.304688 70.902344zm-62.863281-85.902344v-65.425781c19.949218 5.042969 37.699218 29.902344 49.226562 65.425781zm-48.128907-61.011718c-13.152343 14.242187-24.160156 35.289062-31.972656 61.011718h-55.425781c21.046875-29.460937 51.757812-51.398437 87.398437-61.011718zm-96.914062 76.011718h60.875c-5.128907 21.378907-8.191407 45.351563-8.695313 70.902344h-25.613281c-7.792969-18.109375-21.757813-32.933594-39.21875-41.808594 3.273437-10.179687 7.527344-19.917968 12.652344-29.09375zm-43.214844 172.78125v-57.390624l22.496094-22.582032c2.921875-2.9375 2.914062-7.683594-.023438-10.609375-2.933593-2.921875-7.683593-2.910156-10.605469.023438l-11.867187 11.910156v-17.75c0-4.140625-3.355469-7.5-7.5-7.5-4.140625 0-7.5 3.359375-7.5 7.5v50.789063l-11.148437-11.195313c-2.925782-2.933594-7.671876-2.941406-10.609376-.019531-2.933593 2.921875-2.941406 7.671875-.019531 10.605468l21.777344 21.867188v24.265625c-34.21875-3.929687-60.890625-33.183594-60.890625-68.585937 0-38.074219 30.839844-69.046876 68.75-69.046876 37.90625 0 68.75 30.972657 68.75 69.046876 0 13.863281-4.105469 26.777343-11.140625 37.601562-16.046875 3.417969-29.480469 13.988281-36.84375 28.210938-4.371094 1.398437-8.925781 2.371093-13.625 2.859374zm69.222656 60.71875v-12.878906c0-4.140625-3.355469-7.5-7.5-7.5-4.140625 0-7.5 3.359375-7.5 7.5v12.878906c-18.019531-3.527343-31.667969-19.5-31.667969-38.621093 0-21.703125 17.570313-39.355469 39.167969-39.355469 21.601563 0 39.171875 17.652344 39.171875 39.355469 0 19.121093-13.648437 35.09375-31.671875 38.621093zm46.628907-40.277343c6.777343 16.085937 14.992187 29.539062 24.277343 39.589843-10.773437-2.902343-21.085937-6.949218-30.824219-11.972656 4.199219-7.71875 6.589844-16.566406 6.589844-25.960937 0-.554688-.023437-1.105469-.042968-1.65625zm136.058593 1.65625c0-21.703125 17.570313-39.355469 39.167969-39.355469s39.171875 17.652344 39.171875 39.355469c0 19.121093-13.648437 35.09375-31.671875 38.621093v-12.878906c0-4.140625-3.359375-7.5-7.5-7.5-4.144531 0-7.5 3.359375-7.5 7.5v12.878906c-18.023438-3.527343-31.667969-19.5-31.667969-38.621093zm88.375 79.984375h-41.707031v-26.164063c10.597656-1.480469 20.214844-6.046875 27.933594-12.761719h13.773437zm-1.683593-53.925782c4.234374-7.742187 6.648437-16.621093 6.648437-26.058593 0-22.226563-13.371094-41.367188-32.460937-49.78125l14.582031-24.035157c2.097656-3.453124 2.28125-7.417968.488281-10.601562-1.789062-3.179688-5.269531-5.082031-9.3125-5.082031h-3.796875l31.894531-50.46875 31.890625 50.46875h-3.796875c-4.042968 0-7.523437 1.902343-9.316406 5.085937-1.789062 3.183594-1.605469 7.144532.488281 10.597656l24.558594 40.472657h-4.996094c-4.023437 0-7.503906 1.890625-9.3125 5.054687-1.804687 3.164063-1.65625 7.121094.390625 10.582032l25.867188 43.765624zm0 0"/></svg>