<?xml version="1.0" encoding="iso-8859-1"?>
<!-- Generator: Adobe Illustrator 19.0.0, SVG Export Plug-In . SVG Version: 6.00 Build 0)  -->
<svg version="1.1" id="Capa_1" xmlns="http://www.w3.org/2000/svg" xmlns:xlink="http://www.w3.org/1999/xlink" x="0px" y="0px"
	 viewBox="0 0 512 512" style="enable-background:new 0 0 512 512;" xml:space="preserve">
<g>
	<g>
		<path d="M480,0H202.667c-17.673,0-32,14.327-32,32v213.333c0,17.673,14.327,32,32,32H480c17.673,0,32-14.327,32-32V32
			C512,14.327,497.673,0,480,0z M490.667,245.333c0,5.891-4.776,10.667-10.667,10.667H202.667c-5.891,0-10.667-4.776-10.667-10.667
			V32c0-5.891,4.776-10.667,10.667-10.667H480c5.891,0,10.667,4.776,10.667,10.667V245.333z"/>
	</g>
</g>
<g>
	<g>
		<rect x="277.333" y="298.667" width="128" height="21.333"/>
	</g>
</g>
<g>
	<g>
		<rect x="298.667" y="266.667" width="21.333" height="53.333"/>
	</g>
</g>
<g>
	<g>
		<rect x="362.667" y="266.667" width="21.333" height="53.333"/>
	</g>
</g>
<g>
	<g>
		<path d="M117.333,0H32C14.327,0,0,14.327,0,32v256c0,17.673,14.327,32,32,32h85.333c17.673,0,32-14.327,32-32V32
			C149.333,14.327,135.006,0,117.333,0z M128,288c0,5.891-4.776,10.667-10.667,10.667H32c-5.891,0-10.667-4.776-10.667-10.667V32
			c0-5.891,4.776-10.667,10.667-10.667h85.333C123.224,21.333,128,26.109,128,32V288z"/>
	</g>
</g>
<g>
	<g>
		<rect x="10.667" y="53.333" width="128" height="21.333"/>
	</g>
</g>
<g>
	<g>
		<rect x="10.667" y="106.667" width="128" height="21.333"/>
	</g>
</g>
<g>
	<g>
		<rect x="64" y="149.333" width="21.333" height="21.333"/>
	</g>
</g>
<g>
	<g>
		<rect x="181.333" y="202.667" width="288" height="21.333"/>
	</g>
</g>
<g>
	<g>
		<path d="M437.333,42.667H416V64h21.333C443.224,64,448,68.776,448,74.667V96h21.333V74.667
			C469.333,56.994,455.006,42.667,437.333,42.667z"/>
	</g>
</g>
<g>
	<g>
		<rect x="448" y="117.333" width="21.333" height="21.333"/>
	</g>
</g>
<g>
	<g>
		<path d="M309.333,362.667H32c-17.673,0-32,14.327-32,32V480c0,17.673,14.327,32,32,32h277.333c17.673,0,32-14.327,32-32v-85.333
			C341.333,376.994,327.006,362.667,309.333,362.667z M320,480c0,5.891-4.776,10.667-10.667,10.667H32
			c-5.891,0-10.667-4.776-10.667-10.667v-85.333C21.333,388.776,26.109,384,32,384h277.333c5.891,0,10.667,4.776,10.667,10.667V480z
			"/>
	</g>
</g>
<g>
	<g>
		<path d="M448,352c-35.346,0-64,28.654-64,64v32c0.035,35.332,28.668,63.965,64,64c35.332-0.035,63.965-28.668,64-64v-32
			C512,380.654,483.346,352,448,352z M490.667,448c0,23.564-19.102,42.667-42.667,42.667c-23.564,0-42.667-19.102-42.667-42.667v-32
			c0-23.564,19.102-42.667,42.667-42.667c23.564,0,42.667,19.102,42.667,42.667V448z"/>
	</g>
</g>
<g>
	<g>
		<rect x="437.333" y="362.667" width="21.333" height="42.667"/>
	</g>
</g>
<g>
	<g>
		<rect x="53.333" y="405.333" width="42.667" height="21.333"/>
	</g>
</g>
<g>
	<g>
		<rect x="53.333" y="448" width="42.667" height="21.333"/>
	</g>
</g>
<g>
	<g>
		<rect x="117.333" y="405.333" width="42.667" height="21.333"/>
	</g>
</g>
<g>
	<g>
		<rect x="117.333" y="448" width="42.667" height="21.333"/>
	</g>
</g>
<g>
	<g>
		<rect x="181.333" y="405.333" width="42.667" height="21.333"/>
	</g>
</g>
<g>
	<g>
		<rect x="181.333" y="448" width="42.667" height="21.333"/>
	</g>
</g>
<g>
	<g>
		<rect x="245.333" y="405.333" width="42.667" height="21.333"/>
	</g>
</g>
<g>
	<g>
		<rect x="245.333" y="448" width="42.667" height="21.333"/>
	</g>
</g>
<g>
	<g>
		<path d="M202.667,330.667h-96c-11.782,0-21.333-9.551-21.333-21.333H64C64,332.897,83.103,352,106.667,352h96
			c11.782,0,21.333,9.551,21.333,21.333h21.333C245.333,349.769,226.231,330.667,202.667,330.667z"/>
	</g>
</g>
<g>
</g>
<g>
</g>
<g>
</g>
<g>
</g>
<g>
</g>
<g>
</g>
<g>
</g>
<g>
</g>
<g>
</g>
<g>
</g>
<g>
</g>
<g>
</g>
<g>
</g>
<g>
</g>
<g>
</g>
</svg>
