<?xml version="1.0" encoding="iso-8859-1"?>
<!-- Generator: Adobe Illustrator 18.0.0, SVG Export Plug-In . SVG Version: 6.00 Build 0)  -->
<!DOCTYPE svg PUBLIC "-//W3C//DTD SVG 1.1//EN" "http://www.w3.org/Graphics/SVG/1.1/DTD/svg11.dtd">
<svg version="1.1" id="Capa_1" xmlns="http://www.w3.org/2000/svg" xmlns:xlink="http://www.w3.org/1999/xlink" x="0px" y="0px"
	 viewBox="0 0 472.978 472.978" style="enable-background:new 0 0 472.978 472.978;" xml:space="preserve">
<g>
	<path d="M309.504,150.603c20.404,0,37.003-16.6,37.003-37.003v-3.581C346.508,49.354,297.153,0,236.489,0
		S126.47,49.354,126.47,110.019v319.969c0,23.705,19.285,42.99,42.99,42.99h134.058c23.705,0,42.99-19.285,42.99-42.99V237.261
		c0-19.534-12.384-37.004-30.816-43.474l-74.325-26.084c-24.457-8.583-40.889-31.764-40.889-57.684
		c0-19.857,16.155-36.012,36.012-36.012c19.856,0,36.011,16.155,36.011,36.012v3.581C272.5,134.003,289.1,150.603,309.504,150.603z
		 M236.489,54.007c-30.885,0-56.012,25.127-56.012,56.012c0,34.399,21.808,65.165,54.266,76.555l74.325,26.084
		c10.431,3.661,17.439,13.548,17.439,24.602v192.727c0,12.677-10.313,22.99-22.99,22.99H169.46c-12.677,0-22.99-10.313-22.99-22.99
		V110.019C146.47,60.382,186.852,20,236.489,20c49.636,0,90.019,40.382,90.019,90.019v3.581c0,9.376-7.628,17.003-17.003,17.003
		c-9.376,0-17.004-7.627-17.004-17.003v-3.581C292.5,79.134,267.374,54.007,236.489,54.007z"/>
	<path d="M178.835,337.995l50.582,50.582c1.953,1.953,4.512,2.929,7.071,2.929c2.559,0,5.119-0.977,7.071-2.929l50.583-50.583
		c17.844-17.844,17.844-46.88,0-64.725c-15.642-15.64-39.88-17.571-57.645-5.793c-7.436-4.952-16.163-7.611-25.3-7.611
		c-12.225,0-23.718,4.76-32.362,13.405C160.991,291.114,160.991,320.15,178.835,337.995z M192.978,287.412
		c4.867-4.867,11.337-7.547,18.22-7.547s13.353,2.68,18.22,7.547c3.906,3.905,10.238,3.905,14.143,0
		c4.867-4.867,11.337-7.547,18.22-7.547s13.354,2.68,18.22,7.546c10.046,10.047,10.046,26.394,0,36.44l-43.512,43.511
		l-43.511-43.511C182.931,313.806,182.931,297.458,192.978,287.412z"/>
</g>
<g>
</g>
<g>
</g>
<g>
</g>
<g>
</g>
<g>
</g>
<g>
</g>
<g>
</g>
<g>
</g>
<g>
</g>
<g>
</g>
<g>
</g>
<g>
</g>
<g>
</g>
<g>
</g>
<g>
</g>
</svg>
