<?xml version="1.0" encoding="iso-8859-1"?>
<!-- Generator: Adobe Illustrator 19.0.0, SVG Export Plug-In . SVG Version: 6.00 Build 0)  -->
<svg version="1.1" id="Capa_1" xmlns="http://www.w3.org/2000/svg" xmlns:xlink="http://www.w3.org/1999/xlink" x="0px" y="0px"
	 viewBox="0 0 512 512" style="enable-background:new 0 0 512 512;" xml:space="preserve">
<g>
	<g>
		<path d="M408.635,327.432h-31.19V141.489c0-23.516-19.131-42.648-42.647-42.648h-19.002c-1.534-6.114-3.975-11.871-7.181-17.116
			l35.718-51.643h51.737V0h-67.33l-41.909,60.418c-9.125-5.313-19.716-8.374-31.014-8.374c-11.256,0-21.81,3.038-30.91,8.315
			L183.036,0h-79.671v30.082h64.078l35.643,51.535c-3.239,5.273-5.706,11.066-7.25,17.223h-19.002
			c-23.516,0-42.648,19.132-42.648,42.648v185.944h-30.82v30.082h30.82v33.69c0,23.516,19.132,42.648,42.648,42.648h24.324V512
			h109.314v-78.147h24.324c23.516,0,42.647-19.132,42.647-42.648v-33.69h31.19L408.635,327.432L408.635,327.432z M255.815,82.125
			c17.51,0,31.756,14.246,31.756,31.756s-14.246,31.756-31.756,31.756s-31.756-14.246-31.756-31.756S238.305,82.125,255.815,82.125z
			 M164.267,141.488c0-6.929,5.637-12.566,12.567-12.566h19.002c6.736,26.851,31.069,46.797,59.979,46.797
			c28.91,0,53.242-19.945,59.979-46.797h19.002c6.929,0,12.565,5.637,12.565,12.566v57.628H164.267V141.488z M280.39,481.918h-49.15
			V330.454h49.15V481.918z M347.362,391.203c0,6.93-5.636,12.567-12.565,12.567h-24.324V300.372H201.158v103.399h-24.324
			c-6.929,0-12.566-5.637-12.566-12.566V229.198h183.095V391.203z"/>
	</g>
</g>
<g>
</g>
<g>
</g>
<g>
</g>
<g>
</g>
<g>
</g>
<g>
</g>
<g>
</g>
<g>
</g>
<g>
</g>
<g>
</g>
<g>
</g>
<g>
</g>
<g>
</g>
<g>
</g>
<g>
</g>
</svg>
