<svg height="512pt" viewBox="-53 0 512 512" width="512pt" xmlns="http://www.w3.org/2000/svg"><path d="m317.46875 271.878906c25.320312-34.117187 40.542969-77.050781 40.542969-116.898437 0-85.449219-69.523438-154.980469-154.980469-154.980469-85.460938 0-154.980469 69.53125-154.980469 154.980469 0 39.847656 15.21875 82.78125 40.539063 116.898437-51.558594 18.269532-88.589844 67.53125-88.589844 125.269532v114.851562h406.058594v-114.851562c0-57.738282-37.027344-107-88.589844-125.269532zm36.917969 62.175782-70.203125 55.699218v92.246094h-66.152344v-146.25c29.109375-3.761719 55.578125-18.261719 77.480469-39 23.734375 5.261719 44.414062 18.746094 58.875 37.304688zm-77.355469-205.382813v75.707031c-26.28125 9.371094-51.132812 14.121094-74 14.121094-22.402344 0-47.25-4.558594-74-13.578125v-76.25zm-59-54.339844v-43.433593c11.226562 1.339843 21.996094 4.191406 32.117188 8.320312l-18.371094 59.453125h-57.496094l-18.371094-59.453125c10.121094-4.128906 20.890625-6.980469 32.117188-8.320312v43.433593zm-139.980469 80.648438c0-41.296875 20.136719-77.984375 51.101563-100.746094l13.730468 44.4375h-43.851562v127.277344l9.777344 3.628906c33.839844 12.5625 65.542968 18.921875 94.222656 18.921875 29.390625 0 61.179688-6.648438 94.5-19.769531l9.5-3.75v-126.308594h-43.855469l13.730469-44.4375c30.964844 22.761719 51.105469 59.449219 51.105469 100.746094 0 37.660156-16.742188 79.597656-43.261719 109.828125-10.539062 12.019531-22.640625 22.203125-35.851562 29.5-14.1875 7.863281-29.660157 12.410156-45.867188 12.410156-16.210938 0-31.679688-4.546875-45.871094-12.410156-13.210937-7.296875-25.308594-17.480469-35.851562-29.5-26.519532-30.230469-43.257813-72.167969-43.257813-109.828125zm32.5 141.769531c21.898438 20.738281 48.371094 35.238281 77.480469 39v146.25h-66.15625v-92.246094l-70.203125-55.699218c14.460937-18.558594 35.140625-32.042969 58.878906-37.304688zm-80.550781 100.398438c0-12.898438 2.390625-25.246094 6.75-36.636719l55.125 43.734375v77.753906h-61.875zm346.058594 84.851562h-61.875v-77.753906l55.128906-43.734375c4.359375 11.390625 6.75 23.738281 6.75 36.636719v84.851562zm0 0"/></svg>