<?xml version="1.0" encoding="iso-8859-1"?>
<!-- Generator: Adobe Illustrator 17.1.0, SVG Export Plug-In . SVG Version: 6.00 Build 0)  -->
<!DOCTYPE svg PUBLIC "-//W3C//DTD SVG 1.1//EN" "http://www.w3.org/Graphics/SVG/1.1/DTD/svg11.dtd">
<svg version="1.1" id="Capa_1" xmlns="http://www.w3.org/2000/svg" xmlns:xlink="http://www.w3.org/1999/xlink" x="0px" y="0px"
	 viewBox="0 0 433.689 433.689" style="enable-background:new 0 0 433.689 433.689;" xml:space="preserve">
<path d="M337.181,426.764c-0.981,4.138-4.674,6.926-8.75,6.926c-0.688,0-1.386-0.079-2.084-0.245
	c-49.38-11.709-74.418-31.85-74.418-59.863c0-4.971,4.029-9,9-9s9,4.029,9,9c0,23.131,32.939,35.797,60.571,42.349
	C335.337,417.077,338.327,421.927,337.181,426.764z M167.227,364.581c-4.971,0-9,4.029-9,9c0,23.131-32.939,35.797-60.572,42.349
	c-4.836,1.147-7.827,5.997-6.681,10.833c0.981,4.139,4.674,6.926,8.75,6.926c0.687,0,1.386-0.079,2.084-0.245
	c49.381-11.709,74.419-31.85,74.419-59.863C176.227,368.611,172.198,364.581,167.227,364.581z M377.655,157.949
	c-5.48,17.129-18.485,31.52-36.12,40.218c0.61,0.578,1.14,1.241,1.569,1.97c1.726-2.93,5.044-4.752,8.654-4.392
	c4.946,0.494,8.555,4.904,8.062,9.85c-1.895,18.978-6.878,37.534-14.812,55.155c-2.041,4.532-7.371,6.552-11.901,4.511
	c-0.024-0.011-0.047-0.021-0.071-0.032c-12.886,33.141-36.204,61.363-66.934,79.273c-19.857,11.575-35.71,16.749-51.402,16.774
	c-15.723-0.025-31.577-5.198-51.434-16.774c-30.729-17.91-54.047-46.132-66.934-79.273c-0.023,0.011-0.047,0.021-0.071,0.032
	c-4.533,2.04-9.861,0.021-11.901-4.511c-7.935-17.623-12.918-36.18-14.812-55.155c-0.494-4.946,3.116-9.355,8.062-9.849
	c2.917-0.291,5.645,0.844,7.495,2.837c0.054-1.984,0.134-3.96,0.24-5.916c-7.146-5.299-13.319-11.587-18.314-18.745
	C43.846,140.697,50.067,96.187,82.512,63.162c3.483-3.546,9.182-3.596,12.728-0.113c3.545,3.483,3.596,9.182,0.112,12.728
	c-26.59,27.065-31.913,61.546-13.561,87.843c11.669,16.721,34.827,30.54,68.687,30.542c17.047,0.001,36.799-3.499,59.176-11.895
	c-45.571-24.338-87.752-63.504-98.4-105c-4.626-18.034,2.158-38.028,18.147-53.485c23.092-22.321,58-29.472,93.4-19.141
	c1.847,0.509,3.425,1.577,4.575,2.989c0.198,0.243,0.383,0.497,0.556,0.76c1.142,1.745,1.685,3.89,1.389,6.11
	c0,0.001,0,0.002,0,0.002c-0.001,0.007-0.002,0.014-0.003,0.021c0,0.005-0.001,0.009-0.002,0.013c0,0.003,0,0.006-0.001,0.009
	c-0.005,0.04-0.011,0.079-0.017,0.119c-3.621,24.09,20.727,32.364,60.749,43.87c9.328,2.682,18.973,5.454,28.234,8.663
	c24.066,8.336,42.312,21.852,52.765,39.087C380.815,122.391,383.162,140.739,377.655,157.949z M326.38,203.913
	c-20.823,5.803-45.264,4.872-71.368-2.801c-2.26-0.665-4.534-1.377-6.821-2.136c-3.897,8.366-2.145,18.421,4.714,25.02
	c4.222,4.061,9.774,6.245,15.631,6.122c5.857-0.114,11.319-2.501,15.38-6.723c3.446-3.583,9.144-3.694,12.726-0.248
	c3.583,3.445,3.694,9.143,0.248,12.725c-7.394,7.688-17.34,12.036-28.005,12.243c-10.669,0.204-20.771-3.752-28.458-11.146
	c-12.093-11.634-15.461-29.177-9.208-44.118c-7.062,3.154-14.069,5.928-20.994,8.318c2.332,12.972-1.882,26.413-11.641,35.8
	c-7.687,7.394-17.796,11.354-28.458,11.146c-10.665-0.207-20.611-4.554-28.006-12.243c-3.445-3.583-3.334-9.28,0.248-12.725
	c3.582-3.446,9.279-3.335,12.726,0.248c4.061,4.222,9.523,6.61,15.381,6.724c5.858,0.116,11.408-2.061,15.63-6.122
	c4.838-4.654,7.195-11.12,6.668-17.574c-22.254,5.699-43.374,7.193-62.385,4.303c-9.791-1.488-18.975-4.135-27.358-7.832
	c-0.005,0.603-0.008,1.206-0.008,1.808c0,51.724,26.558,99.333,69.308,124.25c16.961,9.887,30.029,14.305,42.37,14.325
	c12.31-0.02,25.376-4.438,42.338-14.325c42.751-24.917,69.308-72.526,69.308-124.25C326.346,204.435,326.358,204.172,326.38,203.913
	z M312.389,84.205c-8.806-3.051-18.216-5.756-27.315-8.372c-6.374-1.833-12.632-3.632-18.652-5.526
	c11.019,11.644,19.563,23.944,18.638,37.873c-0.731,10.997-7.48,21.19-20.06,30.297c-4.027,2.914-9.653,2.014-12.568-2.013
	c-2.915-4.026-2.013-9.653,2.013-12.568c8.038-5.819,12.295-11.508,12.654-16.91c0.73-10.995-13.285-24.297-26.839-37.162
	c-15.749-14.947-33.263-31.571-31.219-50.039c-6.027-1.191-11.98-1.778-17.776-1.778c-19.186,0-36.648,6.435-49.352,18.716
	c-11.277,10.901-16.22,24.385-13.222,36.069c12.414,48.382,77.871,95.313,131.398,111.049c26.223,7.708,50.075,7.774,68.978,0.191
	c15.791-6.335,26.958-17.546,31.445-31.57C367.908,129.346,355.897,99.275,312.389,84.205z M220.369,297.309
	c-2.012,1.208-3.916,2.597-5.685,4.144c-1.77-1.547-3.673-2.937-5.685-4.144c-4.263-2.558-9.791-1.176-12.348,3.086
	c-2.558,4.262-1.176,9.79,3.085,12.348c2.904,1.743,5.402,4.186,7.232,7.071c0.369,0.615,0.814,1.19,1.332,1.71
	c0.779,0.785,1.683,1.405,2.66,1.848c1.194,0.545,2.461,0.807,3.716,0.807c0.005,0,0.009,0,0.017,0c1.269,0,2.549-0.268,3.755-0.825
	c0.951-0.437,1.832-1.042,2.595-1.804c0.53-0.528,0.984-1.113,1.359-1.739c1.828-2.883,4.325-5.325,7.229-7.068
	c4.262-2.558,5.644-8.086,3.085-12.348C230.159,296.133,224.63,294.752,220.369,297.309z M211.658,276.779h6.052c4.971,0,9-4.03,9-9
	s-4.029-9-9-9h-6.052c-4.971,0-9,4.03-9,9S206.688,276.779,211.658,276.779z"/>
<g>
</g>
<g>
</g>
<g>
</g>
<g>
</g>
<g>
</g>
<g>
</g>
<g>
</g>
<g>
</g>
<g>
</g>
<g>
</g>
<g>
</g>
<g>
</g>
<g>
</g>
<g>
</g>
<g>
</g>
</svg>
