<?xml version="1.0" encoding="iso-8859-1"?>
<!-- Generator: Adobe Illustrator 19.0.0, SVG Export Plug-In . SVG Version: 6.00 Build 0)  -->
<svg version="1.1" id="Capa_1" xmlns="http://www.w3.org/2000/svg" xmlns:xlink="http://www.w3.org/1999/xlink" x="0px" y="0px"
	 viewBox="0 0 503.5 503.5" style="enable-background:new 0 0 503.5 503.5;" xml:space="preserve">
<g>
	<g>
		<path d="M479.2,373.85l-0.1-0.1l-15-15c-43-42.9-112.6-42.9-155.5,0l-15,15l-0.1,0.1c-4.6,4.8-4.6,12.4,0,17.2l0.1,0.1l15,15
			c42.9,42.9,112.5,42.9,155.5,0l15-15l0.1-0.1C483.8,386.25,483.8,378.65,479.2,373.85z M452.7,394.85
			c-36.7,36.7-96.1,36.7-132.8,0l-12.4-12.4l12.4-12.4c36.7-36.7,96.1-36.7,132.8,0l12.4,12.4L452.7,394.85z"/>
	</g>
</g>
<g>
	<g>
		<path d="M386.3,342.65c0,0,0,0-0.1,0c-21.9,0-39.7,17.8-39.7,39.8s17.8,39.8,39.8,39.8s39.8-17.8,39.8-39.8
			S408.3,342.65,386.3,342.65z M386.3,406.25c-13.2,0-23.8-10.6-23.8-23.8c0-13.2,10.6-23.8,23.8-23.8c13.1,0,23.8,10.6,23.8,23.8
			C410.1,395.65,399.5,406.25,386.3,406.25z"/>
	</g>
</g>
<g>
	<g>
		<path d="M135.9,140.75c-4.4,0-8,3.6-8,8v4.4c0,5.2-4.2,9.5-9.4,9.5c-2.6,0-5-1-6.8-2.8c-1.8-1.8-2.8-4.2-2.8-6.7v-4.4
			c0-4.4-3.6-8-8-8c-4.4,0-8,3.6-8,8v4.4c0.1,14.1,11.5,25.4,25.5,25.5c14.1,0,25.5-11.4,25.5-25.5v-4.4
			C143.9,144.35,140.3,140.75,135.9,140.75z"/>
	</g>
</g>
<g>
	<g>
		<path d="M223.9,140.75c-4.4,0-8,3.6-8,8v4.4c0.1,5.2-4.1,9.4-9.2,9.5h-0.1c-2.6,0-5-1-6.8-2.8s-2.8-4.2-2.8-6.7v-4.4
			c0-4.4-3.6-8-8-8c-4.4,0-8,3.6-8,8v4.4c0,6.8,2.7,13.3,7.5,18.1c4.8,4.7,11.3,7.4,18,7.4c14,0,25.4-11.4,25.4-25.4v-0.1v-4.4
			C231.9,144.35,228.3,140.75,223.9,140.75z"/>
	</g>
</g>
<g>
	<g>
		<path d="M445.3,281.25c-18-10.4-38.3-15.9-59-15.9c-36.9-0.1-71.6,17.2-93.6,46.8c-12.5-7.9-27-12.2-41.9-12.2h-42.9v-14.1
			c18.3-8.2,34.1-21.1,45.8-37.4c11.7-16.4,18.6-35.7,20-55.7c0.2,0,0.4,0,0.5,0c15.8,0,28.6-12.7,28.7-28.5c0-7.6-3-14.8-8.4-20.1
			c-5.4-5.4-12.7-8.4-20.3-8.4c-0.1,0-0.3,0-0.3,0v-45.8h16.9c4.4-0.1,8-3.7,8-8.1c-0.1-43-34.8-77.8-77.8-77.9h-73
			c-11.4,0.1-22.3,4.6-30.3,12.7c-2.2,2.2-4.2,4.7-5.8,7.4c-26.5,1.2-41.4,15.9-49.4,28.4c-5.5,8.7-9.1,18.4-10.7,28.5
			c-0.1,0.4,0.2,0.8,0.2,1.1v53.6c-0.257,0-0.406,0-0.491,0c-0.004,0-0.005,0-0.009,0c-7.6,0-14.9,3-20.3,8.3
			c-5.4,5.3-8.5,12.6-8.5,20.2c0,15.8,12.9,28.5,28.6,28.5c0.2,0,0.3,0,0.5,0c1.9,26.6,13.4,51.6,32.4,70.3
			c10.8,10.7,23.6,19,37.8,24.6v12.4H79.1c-43.3,0-79.1,35.3-79.1,78.4v97.6c0,4.4,4.1,8,8.5,8h316.8c0.7,0,1.5-0.1,2.2-0.3
			c55.9,32.5,127.6,13.6,160.1-42.3C520.1,385.45,501.2,313.75,445.3,281.25z M51.9,176.75c-0.257,0-0.406,0-0.491,0
			c-0.004,0-0.005,0-0.009,0c-7,0.1-12.8-5.5-12.9-12.5c0-3.3,1.3-6.5,3.7-8.8c2.5-2.4,5.8-3.7,9.2-3.7c0.013,0,0.014,0,0.009,0
			c0.085,0,0.234,0,0.491,0V176.75z M225.6,372.95h0.3c4.3,0,8.5,1.7,11.5,4.7c3,2.9,4.8,7,4.7,11.2c0,8.9-7.3,16.1-16.2,16.1h-0.1
			h-0.3c-4.3,0.1-8.5-1.6-11.5-4.6c-3.1-3-4.8-7-4.7-11.3c0-8.9,7.3-16.1,16.2-16.1C225.5,372.95,225.5,372.95,225.6,372.95z
			 M274.2,151.75c3.4,0,6.7,1.3,9,3.7c2.4,2.3,3.7,5.5,3.7,8.8c-0.1,7-5.7,12.6-12.7,12.5c-0.1,0-0.3,0-0.3,0v-25.1
			C273.9,151.65,274.1,151.75,274.2,151.75z M123.8,35.65c0,0,0-0.1,0.1-0.1c1.2-2.8,3-5.3,5.1-7.5c5-5.1,11.9-8,19-8.1h73
			c31.4,0,57.4,24,61.3,54H148c-0.2,0-0.3,0.1-0.5,0.1c-0.3,0-0.6-0.1-0.9-0.1c-14.3-0.7-25.5-12.5-25.4-26.8
			C121.1,43.25,122,39.25,123.8,35.65z M76.2,61.15c7.1-11.2,17-17.9,29.5-20.2c-0.3,2.1-0.5,4.2-0.5,6.3
			c0.1,17.4,10.6,33.1,26.8,39.7c-24.5,25.9-52,29.1-64,29.1v-33.2h-0.1C67.9,80.65,70.1,70.75,76.2,61.15z M95.5,251.65
			c-17.8-17.7-27.7-41.8-27.6-66.9v-52.8h-0.4c16.8,0,52.8-5,82.5-42h107.9v94.8c0,39.2-24.8,74.8-61.8,88.6
			C161.2,286.45,121.9,277.95,95.5,251.65z M155.9,467.95h-140v-89.6c0-33,27-60.1,59-62v21.4c-7.4,1.7-14.1,5.3-19.5,10.6
			c-7.5,7.4-11.6,17.4-11.5,27.9v44c0.1,4.3,3.7,7.8,8,7.7H52h12.7c4.4,0,8-3.6,8-8c0-4.4-3.6-8-8-8h-4.8v-35.7
			c0-6.2,2.5-12.2,7-16.5c4.4-4.4,10.3-6.8,16.4-6.8h0.4c12.8,0,23.1,10.3,23.2,23c0,0.1,0,0.2,0,0.3v35.7h-7.4c-4.4,0-8,3.6-8,8
			c0,4.4,3.6,8,8,8h15.8c4.1,0.1,7.4-3.1,7.6-7.1c0-0.2,0-0.4,0-0.5v-44c0.2-19-13.3-35.4-32-38.7v-21.7h35.3l29.7,30.5V467.95z
			 M137.9,304.95v-12.5c8.2,1.9,16.5,2.8,24.9,2.8c9.8,0,19.6-1.3,29.1-3.8v13.3l-28.1,27.2L137.9,304.95z M171.9,467.95v-121.3
			l31.2-30.7h14.8v41.8c-14.3,3.6-24.4,16.5-24.5,31.2c0,17.7,14.3,31.9,32,31.9c0.1,0,0.1,0,0.2,0h0.3
			c17.8,0.1,32.2-14.3,32.3-32.1c0.1-8.5-3.3-16.7-9.4-22.6c-4-4.2-9.2-7.2-14.9-8.5v-41.7h16.9c11.7,0,23.2,3.3,33.2,9.6
			c-26.1,47-16.9,105.7,22.4,142.4H171.9z M471.1,437.45c-18.5,28.7-50.5,46.1-84.8,46.1c-55.8,0-101-45.1-101.1-100.9
			c0-19.5,5.6-38.6,16.2-54.9c30.3-46.9,92.8-60.3,139.7-30C488,328.05,501.4,390.55,471.1,437.45z"/>
	</g>
</g>
<g>
</g>
<g>
</g>
<g>
</g>
<g>
</g>
<g>
</g>
<g>
</g>
<g>
</g>
<g>
</g>
<g>
</g>
<g>
</g>
<g>
</g>
<g>
</g>
<g>
</g>
<g>
</g>
<g>
</g>
</svg>
