<svg height="512pt" viewBox="0 -13 512 512" width="512pt" xmlns="http://www.w3.org/2000/svg"><path d="m439.328125 224.046875v-36.355469c0-36.34375-29.523437-65.910156-65.816406-65.910156h-18.132813c-6.800781-25.199219-26.445312-45.757812-52.367187-52.964844-3.992188-1.113281-8.125 1.226563-9.234375 5.21875-1.109375 3.988282 1.226562 8.125 5.214844 9.234375 25.898437 7.199219 43.980468 31.054688 43.980468 58.015625v37.726563c-.035156 0-.070312 0-.105468 0h-.050782v-1.269531c0-7.09375-5.765625-12.867188-12.855468-12.867188h-30.566407c-7.375 0-13.839843-4.390625-16.464843-11.1875-1.484376-3.839844-4.746094-6.757812-8.753907-7.8125-3.949219-1.023438-8.28125-.0625-11.414062 2.523438-10.75 8.867187-24.324219 13.75-38.214844 13.75h-42.507813c-7.089843 0-12.855468 5.773437-12.855468 12.867187v3.996094h-.050782c-.035156 0-.070312 0-.105468 0v-37.726563c0-33.195312 26.957031-60.203125 60.089844-60.203125h36.882812c4.140625 0 7.5-3.355469 7.5-7.5s-3.359375-7.5-7.5-7.5h-36.882812c-34.667969 0-63.914063 23.660157-72.515626 55.699219h-18.113281c-36.289062 0-65.816406 29.566406-65.816406 65.910156v36.359375c-5.328125 4.160157-8.757813 10.613281-8.757813 17.855469v13.21875c0 12.515625 10.238282 22.695312 22.820313 22.695312h1.398437c4.796876 18.503907 16.519532 34.265626 32.234376 44.421876-26.640626 12.101562-45.222657 38.992187-45.222657 70.15625v82.457031c0 6.6875 5.4375 12.132812 12.121094 12.132812h112.734375c4.140625 0 7.5-3.359375 7.5-7.5 0-4.144531-3.359375-7.5-7.5-7.5h-28.109375v-93.441406c0-32.707031 21.570313-60.441406 51.195313-69.710937v3.699218c0 18.035156 14.765624 32.707032 32.914062 32.707032s32.914062-14.671876 32.914062-32.707032v-3.699218c29.625 9.269531 51.195313 37.003906 51.195313 69.710937v93.441406h-104.109375c-4.140625 0-7.5 3.355469-7.5 7.5 0 4.140625 3.359375 7.5 7.5 7.5h188.734375c6.683594 0 12.121094-5.441406 12.121094-12.132812v-32.363281c0-4.140626-3.359375-7.5-7.5-7.5s-7.5 3.359374-7.5 7.5v29.496093h-66.746094v-93.4375c0-4.796875-.394531-9.5-1.136719-14.089843 14.507813-1.796876 25.769532-14.117188 25.769532-29.015626v-1.789062c24.457031 8.269531 42.113281 31.476562 42.113281 58.742188v15.09375c0 4.144531 3.359375 7.5 7.5 7.5s7.5-3.355469 7.5-7.5v-15.09375c0-31.160157-18.578125-58.050782-45.214844-70.148438 15.714844-10.160156 27.429687-25.929688 32.226563-44.425781h1.398437c12.585937 0 22.824219-10.183594 22.824219-22.699219v-13.214844c0-7.246094-3.433594-13.707031-8.761719-17.863281zm-360.417969 31.078125v-13.214844c0-3.917968 2.988282-7.152344 6.839844-7.632812v24.773437c0 1.246094.035156 2.484375.09375 3.71875-3.894531-.4375-6.933594-3.695312-6.933594-7.644531zm263.90625-31.132812v-29.984376h.050782c5.65625 0 10.257812 4.539063 10.257812 10.113282v15.320312c0 5.578125-4.601562 10.117188-10.257812 10.117188h-.234376c.117188-1.839844.183594-3.695313.183594-5.566406zm-183.945312-19.871094c0-5.574219 4.605468-10.113282 10.261718-10.113282h.050782v29.984376c0 1.871093.066406 3.726562.183594 5.566406h-.234376c-5.65625 0-10.261718-4.539063-10.261718-10.117188zm-71.199219 6.144531v-22.574219c0-28.070312 22.796875-50.910156 50.816406-50.910156h15.683594c-.085937 1.492188-.144531 2.992188-.144531 4.503906v42.722656c-6.074219 4.519532-10.035156 11.691407-10.144532 19.769532-3.066406.578125-6.191406.886718-9.339843.886718h-36.671875c-4.28125 0-8.042969 2.238282-10.199219 5.601563zm69.21875 168.285156v93.4375h-66.746094v-79.589843c0-27.269532 17.65625-50.472657 42.109375-58.742188v1.789062c0 14.898438 11.265625 27.21875 25.769532 29.015626-.738282 4.589843-1.132813 9.292968-1.132813 14.089843zm4.855469-28.859375c-.023438 0-.042969.003906-.066406.003906-7.953126 0-14.425782-6.394531-14.425782-14.25v-2.398437c4.675782.894531 9.492188 1.382813 14.425782 1.382813 2.453124 0 4.875-.125 7.269531-.355469-2.886719 4.921875-5.304688 10.148437-7.203125 15.617187zm45.6875-50.820312c-8.828125 4.167968-16.855469 9.761718-23.785156 16.492187-6.820313 2.621094-14.226563 4.0625-21.96875 4.0625-33.597657 0-60.929688-27.082031-60.929688-60.375v-39.390625h33.792969c3.136719 0 6.253906-.234375 9.332031-.683594v.464844c0 13.847656 11.332031 25.117188 25.257812 25.117188h2.554688c5.390625 21.765625 19.132812 40.308594 37.648438 52.070312-.613282.765625-1.25 1.507813-1.902344 2.242188zm66.480468 13.664062c0 9.765625-8.035156 17.707032-17.914062 17.707032s-17.914062-7.941407-17.914062-17.707032v-4.21875c5.78125 1.207032 11.773437 1.847656 17.914062 1.847656s12.132812-.640624 17.914062-1.851562zm-17.914062-17.371094c-39.601562 0-71.816406-31.925781-71.816406-71.171874v-46.847657h40.363281c16.421875 0 32.480469-5.453125 45.539063-15.417969 5.441406 11.113282 16.65625 18.144532 29.308593 18.144532h28.421875v44.121094c0 39.246093-32.214844 71.171874-71.816406 71.171874zm108.746094 40.28125c0 7.859376-6.472656 14.25-14.429688 14.25-.019531 0-.039062-.003906-.0625-.003906-1.898437-5.472656-4.316406-10.699218-7.207031-15.621094 2.394531.230469 4.816406.355469 7.269531.355469 4.933594 0 9.753906-.484375 14.429688-1.378906zm46.503906-76.390624c0 33.289062-27.335938 60.375-60.933594 60.375-7.742187 0-15.144531-1.445313-21.960937-4.066407-6.929688-6.726562-14.960938-12.324219-23.789063-16.492187-.652344-.734375-1.289062-1.480469-1.902344-2.242188 18.519532-11.761718 32.257813-30.304687 37.648438-52.070312h2.554688c13.855468 0 25.132812-11.148438 25.253906-24.894532h43.128906zm13.078125-48.789063c-2.15625-3.363281-5.917969-5.601563-10.199219-5.601563h-46v-.542968c0-8.21875-3.996094-15.53125-10.15625-20.113282v-42.722656c0-1.511718-.0625-3.011718-.148437-4.503906h15.6875c28.019531 0 50.816406 22.835938 50.816406 50.910156zm8.761719 44.859375c0 3.949219-3.039063 7.207031-6.933594 7.644531.058594-1.230469.09375-2.46875.09375-3.714843v-24.773438c3.847656.476562 6.835938 3.710938 6.835938 7.628906v13.214844zm0 0"/><path d="m348.878906 281.886719h7.878906c4.140626 0 7.5-3.355469 7.5-7.5s-3.359374-7.5-7.5-7.5h-5.378906v-8.34375c0-4.140625-3.355468-7.5-7.5-7.5-4.140625 0-7.5 3.359375-7.5 7.5v10.84375c0 6.890625 5.609375 12.5 12.5 12.5zm0 0"/><path d="m359.84375 290.738281c-5.695312 4.140625-13.355469 4.140625-19.050781 0-3.351563-2.4375-8.039063-1.691406-10.476563 1.660157-2.433594 3.347656-1.691406 8.039062 1.660156 10.472656 5.484376 3.988281 11.914063 5.980468 18.34375 5.980468 6.425782 0 12.855469-1.992187 18.339844-5.980468 3.351563-2.433594 4.09375-7.125 1.660156-10.472656-2.433593-3.351563-7.125-4.09375-10.476562-1.660157zm0 0"/><path d="m386.175781 258.261719c4.144531 0 7.5-3.355469 7.5-7.5v-13.203125c0-4.144532-3.355469-7.5-7.5-7.5-4.140625 0-7.5 3.355468-7.5 7.5v13.203125c0 4.144531 3.359375 7.5 7.5 7.5zm0 0"/><path d="m160.242188 280.550781h7.878906c4.140625 0 7.5-3.359375 7.5-7.5 0-4.144531-3.359375-7.5-7.5-7.5h-5.378906v-8.347656c0-4.140625-3.355469-7.5-7.5-7.5-4.140626 0-7.5 3.359375-7.5 7.5v10.847656c0 6.890625 5.609374 12.5 12.5 12.5zm0 0"/><path d="m177.117188 285.90625c-8.941407 7.640625-21.925782 7.640625-30.871094 0-3.148438-2.6875-7.882813-2.316406-10.574219.832031-2.6875 3.148438-2.316406 7.882813.835937 10.574219 7.292969 6.230469 16.234376 9.34375 25.175782 9.34375 8.9375 0 17.878906-3.113281 25.175781-9.34375 3.148437-2.691406 3.523437-7.425781.832031-10.574219-2.691406-3.148437-7.425781-3.519531-10.574218-.832031zm0 0"/><path d="m125.824219 230.058594c-4.144531 0-7.5 3.355468-7.5 7.5v13.203125c0 4.144531 3.355469 7.5 7.5 7.5 4.140625 0 7.5-3.355469 7.5-7.5v-13.203125c0-4.144532-3.359375-7.5-7.5-7.5zm0 0"/><path d="m253.539062 227.121094h9.921876c4.144531 0 7.5-3.355469 7.5-7.5 0-4.140625-3.355469-7.5-7.5-7.5h-7.421876v-10.859375c0-4.144531-3.359374-7.5-7.5-7.5-4.140624 0-7.5 3.355469-7.5 7.5v13.359375c0 6.894531 5.605469 12.5 12.5 12.5zm0 0"/><path d="m214.4375 187.910156c-4.140625 0-7.5 3.359375-7.5 7.5v15.304688c0 4.144531 3.359375 7.5 7.5 7.5s7.5-3.355469 7.5-7.5v-15.304688c0-4.140625-3.359375-7.5-7.5-7.5zm0 0"/><path d="m297.5625 187.910156c-4.140625 0-7.5 3.359375-7.5 7.5v15.304688c0 4.144531 3.359375 7.5 7.5 7.5s7.5-3.355469 7.5-7.5v-15.304688c0-4.140625-3.359375-7.5-7.5-7.5zm0 0"/><path d="m278.03125 233.609375h-44.0625c-6.535156 0-11.851562 5.320313-11.851562 11.863281v11.292969c0 18.589844 15.199218 33.710937 33.882812 33.710937s33.886719-15.121093 33.886719-33.710937v-11.292969c-.003907-6.539062-5.320313-11.863281-11.855469-11.863281zm-3.148438 23.15625c0 10.320313-8.472656 18.714844-18.882812 18.714844-10.414062 0-18.882812-8.394531-18.882812-18.714844v-8.152344h37.765624zm0 0"/><path d="m255.980469 50.199219c4.144531 0 7.5-3.359375 7.5-7.5v-35.199219c0-4.144531-3.355469-7.5-7.5-7.5-4.140625 0-7.5 3.355469-7.5 7.5v35.199219c0 4.140625 3.359375 7.5 7.5 7.5zm0 0"/><path d="m335.054688 66.023438c.9375.390624 1.914062.574218 2.871093.574218 2.941407 0 5.734375-1.742187 6.929688-4.625l13.488281-32.5c1.585938-3.824218-.230469-8.214844-4.054688-9.800781-3.824218-1.589844-8.214843.226563-9.800781 4.050781l-13.488281 32.5c-1.585938 3.824219.226562 8.214844 4.054688 9.800782zm0 0"/><path d="m407.316406 113.273438c1.914063 0 3.828125-.726563 5.292969-2.1875l24.902344-24.8125c2.933593-2.925782 2.941406-7.671876.019531-10.609376-2.921875-2.933593-7.671875-2.941406-10.605469-.015624l-24.90625 24.8125c-2.933593 2.921874-2.941406 7.671874-.015625 10.605468 1.464844 1.472656 3.386719 2.207032 5.3125 2.207032zm0 0"/><path d="m492.933594 159.40625c-1.570313-3.835938-5.949219-5.667969-9.785156-4.097656l-29.996094 12.300781c-3.832032 1.570313-5.664063 5.949219-4.09375 9.78125 1.191406 2.902344 3.992187 4.660156 6.945312 4.660156.945313 0 1.910156-.183593 2.839844-.566406l29.996094-12.296875c3.832031-1.570312 5.664062-5.949219 4.09375-9.78125zm0 0"/><path d="m60.011719 162.691406-28.804688-12.601562c-3.792969-1.660156-8.21875.070312-9.878906 3.867187-1.65625 3.792969.074219 8.214844 3.867187 9.875l28.804688 12.601563c.980469.429687 1.996094.628906 3.003906.628906 2.886719 0 5.640625-1.679688 6.875-4.496094 1.65625-3.792968-.070312-8.214844-3.867187-9.875zm0 0"/><path d="m102.742188 107.511719c1.472656 1.539062 3.441406 2.3125 5.417968 2.3125 1.863282 0 3.734375-.691407 5.1875-2.085938 2.992188-2.863281 3.089844-7.613281.226563-10.601562l-24.328125-25.390625c-2.863282-2.992188-7.613282-3.09375-10.601563-.226563-2.992187 2.863281-3.09375 7.613281-.230469 10.601563zm0 0"/><path d="m171.605469 59.972656c1.152343 2.96875 3.988281 4.785156 6.992187 4.785156.902344 0 1.820313-.164062 2.710938-.511718 3.863281-1.496094 5.777344-5.84375 4.277344-9.703125l-12.734376-32.804688c-1.496093-3.859375-5.839843-5.777343-9.703124-4.277343-3.863282 1.5-5.777344 5.84375-4.277344 9.707031zm0 0"/><path d="m504.5 250.304688h-35.117188c-4.144531 0-7.5 3.355468-7.5 7.5 0 4.140624 3.355469 7.5 7.5 7.5h35.117188c4.140625 0 7.5-3.359376 7.5-7.5 0-4.144532-3.359375-7.5-7.5-7.5zm0 0"/><path d="m42.617188 250.304688h-35.117188c-4.140625 0-7.5 3.355468-7.5 7.5 0 4.140624 3.359375 7.5 7.5 7.5h35.117188c4.140624 0 7.5-3.359376 7.5-7.5 0-4.144532-3.359376-7.5-7.5-7.5zm0 0"/><path d="m256 448.496094c3.164062 0 6.144531-1.226563 8.382812-3.453125l36.6875-36.460938c5.515626-5.476562 8.550782-12.777343 8.550782-20.546875 0-7.773437-3.035156-15.070312-8.550782-20.554687-5.507812-5.472657-12.832031-8.488281-20.613281-8.488281s-15.101562 3.015624-20.609375 8.492187l-3.847656 3.820313-3.847656-3.824219c-5.507813-5.472657-12.828125-8.488281-20.609375-8.488281-7.785157 0-15.105469 3.015624-20.613281 8.492187-5.515626 5.480469-8.550782 12.777344-8.550782 20.550781 0 7.769532 3.035156 15.066406 8.550782 20.546875l36.6875 36.464844c2.242187 2.226563 5.21875 3.449219 8.382812 3.449219zm-38.621094-60.460938c0-3.75 1.464844-7.269531 4.125-9.914062 2.675782-2.660156 6.242188-4.128906 10.039063-4.128906 3.792969 0 7.359375 1.46875 10.035156 4.128906l9.136719 9.078125c2.925781 2.90625 7.644531 2.90625 10.570312 0l9.132813-9.078125c2.683593-2.660156 6.246093-4.128906 10.039062-4.128906 3.796875 0 7.359375 1.46875 10.039063 4.128906 2.660156 2.644531 4.125 6.164062 4.125 9.914062 0 3.746094-1.464844 7.265625-4.121094 9.90625l-34.5 34.285156-34.496094-34.28125c-2.660156-2.644531-4.125-6.164062-4.125-9.910156zm0 0"/></svg>