<svg height="512pt" viewBox="-12 0 511 512" width="512pt" xmlns="http://www.w3.org/2000/svg"><path d="m416.988281 94.921875c-39.3125-39.371094-89.679687-63.617187-144.085937-69.902344-1.816406-14.09375-13.871094-25.019531-28.433594-25.019531-14.558594 0-26.609375 10.921875-28.429688 25.007812-38.550781 4.480469-75.355468 18.054688-107.765624 39.933594-3.433594 2.316406-4.335938 6.980469-2.019532 10.414063 2.316406 3.433593 6.976563 4.335937 10.410156 2.019531 30.484376-20.578125 65.117188-33.324219 101.390626-37.496094 4.359374 10.296875 14.558593 17.539063 26.417968 17.539063 11.847656 0 22.042969-7.234375 26.40625-17.519531 113.859375 13.15625 202.5625 110.277343 202.5625 227.78125 0 126.445312-102.71875 229.320312-228.972656 229.320312-48.765625 0-94.015625-15.359375-131.191406-41.488281 1.09375-3.039063 1.691406-6.308594 1.691406-9.71875 0-15.832031-12.863281-28.707031-28.675781-28.707031-4.578125 0-8.902344 1.082031-12.746094 3-36.082031-40.542969-58.046875-93.949219-58.046875-152.40625 0-63.492188 26.636719-124.710938 73.082031-167.96875 3.03125-2.824219 3.199219-7.570313.375-10.601563-2.820312-3.03125-7.566406-3.199219-10.597656-.375-24.308594 22.636719-43.449219 49.449219-56.886719 79.695313-13.917968 31.3125-20.972656 64.703124-20.972656 99.246093 0 60.523438 21.84375 117.679688 61.769531 162.46875-2.9375 4.503907-4.652343 9.878907-4.652343 15.644531 0 15.832032 12.863281 28.707032 28.675781 28.707032 6.945312 0 13.316406-2.480469 18.285156-6.605469 40.703125 28.65625 89.105469 44.109375 139.890625 44.109375 65.171875 0 126.4375-25.414062 172.519531-71.5625 46.074219-46.148438 71.453125-107.5 71.453125-172.757812 0-65.261719-25.378906-126.613282-71.453125-172.757813zm-172.519531-52.503906c-7.539062 0-13.675781-6.148438-13.675781-13.707031 0-7.5625 6.136719-13.710938 13.675781-13.710938 7.542969 0 13.679688 6.148438 13.679688 13.707031 0 7.558594-6.136719 13.710938-13.679688 13.710938zm-158.175781 417.082031c-7.539063 0-13.675781-6.148438-13.675781-13.707031 0-7.558594 6.132812-13.707031 13.675781-13.707031s13.675781 6.148437 13.675781 13.707031c0 7.558593-6.132812 13.707031-13.675781 13.707031zm0 0"/><path d="m244.46875 470.371094c102.730469 0 187.832031-76.832032 200.921875-176.042969 11.703125-3.621094 20.230469-14.550781 20.230469-27.433594 0-12.964843-8.632813-23.945312-20.441406-27.496093-13.804688-98.425782-98.539063-174.414063-200.710938-174.414063-63.167969 0-119.664062 29.0625-156.867188 74.503906-1.28125-.175781-2.585937-.273437-3.914062-.273437-15.816406 0-28.679688 12.875-28.679688 28.707031 0 5.933594 1.808594 11.453125 4.898438 16.03125-11.628906 25.539063-18.128906 53.882813-18.128906 83.726563 0 111.761718 90.925781 202.691406 202.691406 202.691406zm-160.78125-273.742188c13.390625 0 24.664062-9.238281 27.804688-21.6875h25.238281c-1.582031 1.308594-3.121094 2.691406-4.59375 4.15625-12.425781 12.347656-19.269531 28.792969-19.269531 46.304688 0 12.507812 3.511718 24.460937 10.035156 34.777344h-65.957032c.921876-23.386719 6.148438-45.679688 14.902344-66.121094 3.613282 1.644531 7.617188 2.570312 11.839844 2.570312zm91.921875-36.6875c3.105469-9.609375 6.644531-18.683594 10.605469-27.089844 13.960937-29.628906 32.125-48.105468 50.753906-52.058593v79.148437h-58.289062c-.003907 0-.011719 0-.019532 0-.007812 0-.011718 0-.019531 0zm254.351563 79.109375c-10.304688 2.589844-18.40625 10.773438-20.894532 21.128907h-43.027344c6.523438-10.316407 10.03125-22.269532 10.03125-34.777344.003907-17.511719-6.839843-33.957032-19.265624-46.304688-1.476563-1.464844-3.011719-2.847656-4.597657-4.152344h55.378907c11.113281 19.464844 18.835937 41.101563 22.375 64.105469zm-22.355469 121.363281h-74.429688c5.804688-23.335937 9.347657-48.9375 10.417969-75.582031l9.710938-9.652343h56.183593c2.921875 9.679687 10.820313 17.214843 20.707031 19.609374-3.425781 23.566407-11.238281 45.730469-22.589843 65.625zm-155.636719 94.148438v-18.5625c0-4.140625-3.355469-7.5-7.5-7.5-4.140625 0-7.5 3.359375-7.5 7.5v18.5625c-18.628906-3.953125-36.792969-22.429688-50.753906-52.058594-3.960938-8.40625-7.5-17.480468-10.605469-27.089844h61.359375v24.585938c0 4.140625 3.359375 7.5 7.5 7.5 4.144531 0 7.5-3.359375 7.5-7.5v-24.585938h61.363281c-3.105469 9.609376-6.644531 18.683594-10.605469 27.089844-13.964843 29.628906-32.128906 48.105469-50.757812 52.058594zm-80.738281-94.148438c-4.847657-18.496093-8.167969-38.628906-9.878907-59.679687l60.050782 59.679687zm96.304687 0 22.222656-22.085937c2.9375-2.917969 2.953126-7.667969.03125-10.605469-2.917968-2.9375-7.667968-2.953125-10.605468-.03125l-31.671875 31.472656c-.8125.808594-1.890625 1.25-3.042969 1.25s-2.234375-.445312-3.046875-1.25l-98.710937-98.101562c-9.570313-9.511719-14.84375-22.175781-14.84375-35.660156 0-13.488282 5.273437-26.152344 14.84375-35.664063 9.597656-9.539062 22.363281-14.792969 35.949218-14.792969 13.582032 0 26.347656 5.253907 35.949219 14.792969l24.574219 24.421875c2.925781 2.910156 7.648437 2.910156 10.574218 0l24.574219-24.421875c9.601563-9.539062 22.371094-14.792969 35.949219-14.792969s26.347656 5.253907 35.949219 14.792969c9.570312 9.511719 14.84375 22.175781 14.839843 35.664063 0 13.484375-5.269531 26.148437-14.835937 35.660156l-41.050781 40.792969c-2.9375 2.917969-2.953125 7.667969-.035156 10.605469 2.921874 2.9375 7.667968 2.953124 10.609374.03125l11.828126-11.757813c-1.707032 21.054687-5.03125 41.1875-9.878907 59.679687zm-30.566406-169.601562-11.789062-11.714844c-1.472657-1.464844-3.007813-2.847656-4.59375-4.152344h16.382812zm15 0v-15.867188h16.386719c-1.585938 1.304688-3.121094 2.6875-4.597657 4.152344zm58.332031-30.871094c-.007812 0-.015625 0-.019531 0-.007812 0-.015625 0-.023438 0h-58.289062v-79.148437c18.628906 3.953125 36.792969 22.429687 50.757812 52.058593 3.960938 8.410157 7.5 17.480469 10.605469 27.09375h-3.03125zm-174.664062 115.238282 9.710937 9.648437c1.066406 26.648437 4.613282 52.246094 10.414063 75.585937h-74.425781c-14.457032-25.332031-23.175782-54.335937-24.394532-85.234374zm-44.773438 100.234374h69.035157c3.628906 11.945313 7.886718 23.175782 12.746093 33.484376 8.128907 17.246093 17.554688 31.09375 27.878907 41.265624-45.023438-10.84375-83.773438-37.957031-109.660157-74.75zm197.535157 74.765626c10.332031-10.171876 19.765624-24.023438 27.898437-41.28125 4.855469-10.308594 9.113281-21.539063 12.746094-33.484376h69.035156c-25.886719 36.800782-64.644531 63.925782-109.679687 74.765626zm162.21875-183.285157c0 7.558594-6.132813 13.707031-13.675782 13.707031-7.539062 0-13.675781-6.148437-13.675781-13.707031 0-7.558593 6.136719-13.710937 13.675781-13.710937 7.542969 0 13.675782 6.152344 13.675782 13.710937zm-52.546876-106.953125h-69.027343c-3.632813-11.945312-7.890625-23.175781-12.746094-33.484375-8.132813-17.253906-17.5625-31.109375-27.894531-41.277343 45.027344 10.839843 83.78125 37.964843 109.667968 74.761718zm-197.539062-74.753906c-10.328125 10.167969-19.757812 24.019531-27.886719 41.273438-4.859375 10.308593-9.117187 21.535156-12.746093 33.484374h-48.671876c-1.628906-5.625-4.925781-10.546874-9.328124-14.179687 25.308593-29.554687 59.609374-51.183594 98.632812-60.578125zm-116.84375 69.027344c7.539062 0 13.675781 6.148437 13.675781 13.707031s-6.136719 13.707031-13.675781 13.707031c-7.542969 0-13.679688-6.148437-13.679688-13.707031s6.136719-13.707031 13.679688-13.707031zm0 0"/><path d="m196.761719 220.847656c-4.140625 0-7.5 3.355469-7.5 7.5v19.515625c0 4.144531 3.359375 7.5 7.5 7.5s7.5-3.355469 7.5-7.5v-19.515625c0-4.144531-3.359375-7.5-7.5-7.5zm0 0"/><path d="m292.175781 220.847656c-4.140625 0-7.5 3.355469-7.5 7.5v19.515625c0 4.144531 3.359375 7.5 7.5 7.5 4.144531 0 7.5-3.355469 7.5-7.5v-19.515625c0-4.144531-3.355469-7.5-7.5-7.5zm0 0"/><path d="m266.921875 276.152344c-4.144531 0-7.5 3.359375-7.5 7.5 0 8.167968-6.707031 14.8125-14.953125 14.8125-8.242188 0-14.945312-6.644532-14.945312-14.8125 0-4.140625-3.359376-7.5-7.5-7.5-4.144532 0-7.5 3.359375-7.5 7.5 0 16.441406 13.433593 29.8125 29.945312 29.8125 16.515625 0 29.953125-13.371094 29.953125-29.8125 0-4.140625-3.359375-7.5-7.5-7.5zm0 0"/></svg>