<svg height="512pt" viewBox="-103 0 512 512" width="512pt" xmlns="http://www.w3.org/2000/svg"><path d="m280.722656 290.890625v-9.390625c0-6.894531-5.609375-12.5-12.5-12.5h-51.207031c-4.375 0-8.710937 2.207031-11.519531 5.597656h-6.488282c.738282-1.65625 1.355469-3.378906 1.816407-5.164062 24.25-13.054688 42.445312-35.789063 49.289062-62.933594h7.53125c15.886719 0 28.8125-12.832031 28.8125-28.605469v-18.351562c0-3.441407-.636719-6.730469-1.765625-9.789063 8.96875-3.148437 15.421875-11.695312 15.421875-21.730468 0-12.695313-10.332031-23.023438-23.023437-23.023438h-4.820313c-1.601562-8.539062-4.117187-16.878906-7.554687-24.941406-1.625-3.8125-6.03125-5.585938-9.839844-3.957032-3.8125 1.625-5.582031 6.03125-3.960938 9.839844 2.636719 6.179688 4.644532 12.550782 6.039063 19.058594h-57.550781v-72.964844c12.445312 6 23.742187 14.421875 33.128906 24.953125 2.757812 3.09375 7.496094 3.367188 10.589844.609375 3.09375-2.753906 3.363281-7.496094.609375-10.585937-12.332031-13.835938-27.546875-24.488281-44.328125-31.394531v-.117188c0-8.546875-6.953125-15.5-15.5-15.5h-61c-8.546875 0-15.5 6.953125-15.5 15.5v.09375c-37.253906 15.378906-65.199219 48.851562-72.84375 89.40625h-4.84375c-12.695313 0-23.023438 10.328125-23.023438 23.023438 0 10.035156 6.453125 18.582031 15.421875 21.730468-1.128906 3.058594-1.765625 6.347656-1.765625 9.789063v18.351562c0 15.773438 12.925782 28.605469 28.8125 28.605469h7.53125c6.84375 27.144531 25.039063 49.878906 49.289063 62.933594.464843 1.785156 1.078125 3.507812 1.816406 5.164062h-6.488281c-2.808594-3.390625-7.144532-5.597656-11.519532-5.597656h-51.207031c-6.890625 0-12.5 5.605469-12.5 12.5v9.390625c-15.910156 13.078125-26.082031 32.851563-26.082031 54.960937v151.234376c0 8.222656 6.703125 14.914062 14.945312 14.914062h276.914063c8.242187 0 14.945313-6.691406 14.945313-14.914062v-151.234376c0-22.109374-10.167969-41.886718-26.082032-54.960937zm-147.949218-75.507813c2.015624 4.203126 6.300781 7.117188 11.265624 7.117188h18.730469c4.960938 0 9.246094-2.914062 11.261719-7.117188 7.457031 2.386719 12.871094 9.378907 12.871094 17.617188v28c0 10.199219-8.296875 18.5-18.5 18.5h-30c-10.199219 0-18.5-8.300781-18.5-18.5v-28c0-8.238281 5.414062-15.230469 12.871094-17.617188zm-1.535157 78.339844c2.3125.503906 4.707031.777344 7.164063.777344h30c2.460937 0 4.855468-.273438 7.164062-.777344v.109375c0 12.058594-9.941406 21.871094-22.164062 21.871094s-22.164063-9.8125-22.164063-21.871094zm140.21875-115.828125c0 7.503907-6.195312 13.605469-13.808593 13.605469h-4.976563c.269531-2.945312.421875-5.925781.421875-8.9375v-31.511719h15.324219c1.898437 2.332031 3.039062 5.28125 3.039062 8.492188zm-149.054687-162.394531c0-.277344.226562-.5.5-.5h61c.277344 0 .5.222656.5.5v89.5h-62zm-15 16.535156v72.964844h-57.550782c6.972657-32.1875 28.617188-58.960938 57.550782-72.964844zm-77.683594 87.964844h247.371094c4.425781 0 8.023437 3.601562 8.023437 8.023438 0 4.425781-3.597656 8.027343-8.023437 8.027343h-247.371094c-4.425781 0-8.027344-3.601562-8.027344-8.027343 0-4.421876 3.601563-8.023438 8.027344-8.023438zm19.441406 71.5c-7.613281 0-13.8125-6.101562-13.8125-13.605469v-18.351562c0-3.210938 1.144532-6.164063 3.039063-8.492188h15.328125v31.511719c0 3.015625.152344 5.992188.417968 8.9375zm19.554688-8.9375v-31.511719h169.378906v31.511719c0 28.363281-14.328125 53.464844-36.191406 68.628906v-18.191406c0-16.121094-11.445313-29.613281-26.636719-32.789062v-2.210938c0-4.140625-3.355469-7.5-7.5-7.5-4.140625 0-7.5 3.359375-7.5 7.5v9.5h-13.726563v-31.09375c0-4.144531-3.359374-7.5-7.5-7.5-4.144531 0-7.5 3.355469-7.5 7.5v23.804688c-15.191406 3.175781-26.636718 16.667968-26.636718 32.789062v18.191406c-21.859375-15.164062-36.1875-40.265625-36.1875-68.628906zm-27.628906 101.4375h48.4375c.0625.035156.132812.082031.1875.128906l24.378906 62.59375c1.503906 3.859375 5.851562 5.769532 9.710937 4.265625 3.859375-1.503906 5.769531-5.851562 4.265625-9.710937l-20.128906-51.683594h8.300781v4.234375c0 20.332031 16.671875 36.875 37.164063 36.875 20.492187 0 37.164062-16.542969 37.164062-36.875v-4.234375h8.300782l-45.464844 116.738281-12.480469-32.054687c-1.503906-3.859375-5.851563-5.769532-9.710937-4.265625-3.859376 1.503906-5.769532 5.851562-4.269532 9.710937l15.839844 40.667969c.757812 1.953125 1.792969 4.117187 3.121094 5.996094v70.613281h-104.816406zm-26.085938 61.851562c0-12.5 4.125-24.058593 11.085938-33.40625v184.554688h-11.085938zm276.804688 151.148438h-11.082032v-20c0-4.140625-3.359375-7.5-7.5-7.5-4.144531 0-7.5 3.359375-7.5 7.5v20h-104.820312v-70.265625c1.445312-2.25 2.601562-5.003906 3.125-6.34375l53.066406-136.261719c.054688-.046875.125-.09375.1875-.128906h48.441406v156c0 4.140625 3.355469 7.5 7.5 7.5 4.140625 0 7.5-3.359375 7.5-7.5v-127.558594c6.957032 9.351563 11.082032 20.910156 11.082032 33.410156zm0 0"/><path d="m96.644531 360.25c-5.363281 0-10.410156 2.0625-14.21875 5.808594l-.074219.074218-.074218-.074218c-3.804688-3.746094-8.855469-5.808594-14.214844-5.808594-5.367188 0-10.417969 2.0625-14.21875 5.808594-3.832031 3.773437-5.941406 8.804687-5.941406 14.164062 0 5.363282 2.109375 10.390625 5.941406 14.164063l21.441406 21.121093c1.894532 1.863282 4.40625 2.890626 7.066406 2.890626 2.667969 0 5.179688-1.03125 7.070313-2.894532l21.441406-21.117187c3.828125-3.773438 5.9375-8.800781 5.9375-14.164063 0-5.359375-2.109375-10.390625-5.941406-14.164062-3.804687-3.746094-8.851563-5.808594-14.214844-5.808594zm3.695313 23.449219-17.988282 17.714843-17.980468-17.714843c-.945313-.933594-1.46875-2.167969-1.46875-3.476563 0-1.3125.523437-2.546875 1.46875-3.480468.992187-.976563 2.269531-1.492188 3.691406-1.492188s2.699219.515625 3.691406 1.492188l5.335938 5.261718c2.921875 2.875 7.609375 2.875 10.527344 0l5.332031-5.257812c.996093-.976563 2.273437-1.496094 3.695312-1.496094s2.699219.515625 3.691407 1.492188c.945312.933593 1.46875 2.167968 1.46875 3.480468 0 1.308594-.519532 2.546875-1.464844 3.476563zm0 0"/><path d="m107.167969 188.574219c4.144531 0 7.5-3.355469 7.5-7.5v-17.519531c0-4.144532-3.355469-7.5-7.5-7.5-4.140625 0-7.5 3.355468-7.5 7.5v17.519531c0 4.144531 3.359375 7.5 7.5 7.5zm0 0"/><path d="m199.636719 188.574219c4.144531 0 7.5-3.355469 7.5-7.5v-17.519531c0-4.144532-3.355469-7.5-7.5-7.5s-7.5 3.355468-7.5 7.5v17.519531c0 4.144531 3.359375 7.5 7.5 7.5zm0 0"/><path d="m244.402344 373.5h-44c-6.890625 0-12.5 5.605469-12.5 12.5v12c0 6.894531 5.609375 12.5 12.5 12.5h44c6.894531 0 12.5-5.605469 12.5-12.5v-12c0-6.894531-5.605469-12.5-12.5-12.5zm-2.5 22h-39v-7h39zm0 0"/><path d="m153.402344 255.898438c8.96875 0 17.933594-3.378907 24.761718-10.140626 2.941407-2.914062 2.96875-7.664062.050782-10.605468-2.914063-2.945313-7.664063-2.964844-10.605469-.054688-7.832031 7.757813-20.578125 7.757813-28.410156 0-2.945313-2.914062-7.695313-2.890625-10.605469.054688-2.917969 2.941406-2.894531 7.691406.050781 10.605468 6.824219 6.761719 15.792969 10.140626 24.757813 10.140626zm0 0"/><path d="m165.402344 45.5h-24c-4.140625 0-7.5 3.359375-7.5 7.5s3.359375 7.5 7.5 7.5h24c4.144531 0 7.5-3.359375 7.5-7.5s-3.355469-7.5-7.5-7.5zm0 0"/></svg>