<?xml version="1.0" encoding="iso-8859-1"?>
<!-- Generator: Adobe Illustrator 21.0.0, SVG Export Plug-In . SVG Version: 6.00 Build 0)  -->
<svg xmlns="http://www.w3.org/2000/svg" xmlns:xlink="http://www.w3.org/1999/xlink" version="1.1" id="Capa_1" x="0px" y="0px" viewBox="0 0 512 512" style="enable-background:new 0 0 512 512;" xml:space="preserve" width="512" height="512">
<g>
	<g>
		<path d="M511.995,247.177c-0.377-31.115-20.334-62.266-54.753-85.465c-34.602-23.322-79.435-36.166-126.242-36.166    c-8.597,0-17.146,0.444-25.597,1.307c-0.113,0.011-0.227,0.016-0.34,0.031c-26.008,2.691-51.058,9.412-73.565,19.831    c-26.971,12.485-48.636,29.382-63.005,49.064c-4.14,0.206-8.266,0.52-12.369,0.927c-0.43,0.012-0.856,0.057-1.278,0.124    c-0.522,0.055-1.048,0.094-1.569,0.152c-5.489,0.608-9.446,5.551-8.838,11.041c0.556,5.009,4.728,8.724,9.618,8.881    c14.475,9.535,35.379,44.885,39.602,73.406c0.735,4.967,5.005,8.537,9.88,8.537c0.487,0,0.981-0.036,1.478-0.109    c5.463-0.809,9.236-5.893,8.428-11.356c-3.635-24.554-17.179-53.169-32.446-71.928c0.001,0,0.002,0,0.003,0    c22.535,0,44.513,3.219,64.848,9.336c0.593,0.249,1.211,0.436,1.845,0.567c4.016,1.249,7.964,2.612,11.839,4.086    c9.468,8.527,20.232,35.973,19.982,59.296c-0.06,5.522,4.369,10.047,9.892,10.106c0.037,0,0.073,0,0.109,0    c5.473,0,9.938-4.407,9.997-9.893c0.153-14.283-2.967-30.001-8.065-43.739c1.559,0.977,3.103,1.969,4.618,2.99    c28.895,19.475,45.637,44.669,45.934,69.123c0.128,10.534-2.918,18.8-9.312,25.271c-23.569,23.857-91.635,23.857-151.687,23.857    s-128.116,0-151.686-23.857c-6.394-6.471-9.438-14.738-9.312-25.271c0.298-24.644,16.892-49.448,45.246-68.678    c10.054,10.17,21.762,27.962,25.839,42.84c1.218,4.442,5.245,7.359,9.639,7.359c0.875,0,1.765-0.116,2.649-0.358    c5.326-1.46,8.461-6.961,7.001-12.288c-4.24-15.471-15.46-34.602-27.513-48.022c4.464-2.711,6.125-8.45,3.68-13.15    c-2.549-4.898-8.587-6.804-13.487-4.255c-4.034,2.099-7.919,4.302-11.662,6.59c-0.066,0.036-0.129,0.078-0.194,0.116    C23.036,250.88,0.409,283.678,0.005,317.083c-0.193,15.931,4.881,29.244,15.082,39.57c27.33,27.663,86.005,29.801,165.913,29.801    c79.909,0,138.584-2.138,165.914-29.801c10.201-10.326,15.275-23.639,15.082-39.57c-0.003-0.229-0.017-0.458-0.022-0.686    c57.648-0.682,110.206-4.459,135.059-29.774C507.154,276.315,512.187,263.044,511.995,247.177z M215.238,178.725    c5.477,5.523,11.519,13.357,16.551,21.9c-12.062-2.508-24.499-4.125-37.142-4.803C200.673,189.657,207.58,183.93,215.238,178.725z     M482.762,272.611c-20.004,20.375-71.375,23.284-123.865,23.817c-6.864-23.908-24.881-46.765-51.653-64.81    c-14.931-10.064-31.771-18.171-49.85-24.143c-5.384-13.586-14.648-28.265-24.49-39.186c20.919-10.717,45.473-18.093,71.37-21.15    c8.508,5.786,19.578,20.786,27.838,37.997c1.72,3.584,5.297,5.676,9.022,5.676c1.451,0,2.925-0.317,4.319-0.987    c4.979-2.389,7.079-8.363,4.689-13.342c-5.761-12.006-12.333-22.566-19.112-30.936c27.679,0.004,54.518,4.863,78.499,13.988    c9.469,8.526,20.233,35.974,19.983,59.297c-0.06,5.522,4.369,10.047,9.892,10.106c0.037,0,0.073,0,0.109,0    c5.473,0,9.938-4.407,9.997-9.893c0.153-14.283-2.967-30.001-8.065-43.739c1.559,0.977,3.103,1.969,4.618,2.99    c28.895,19.476,45.637,44.67,45.934,69.123C492.123,257.913,489.103,266.153,482.762,272.611z"/>
		<path d="M114.964,224.758c1.116,0,2.252-0.188,3.363-0.585l0.007-0.002c5.201-1.858,7.908-7.579,6.051-12.78    c-1.858-5.202-7.587-7.908-12.784-6.053c-5.201,1.858-7.911,7.58-6.054,12.781C107.007,222.208,110.857,224.758,114.964,224.758z"/>
		<path d="M363.164,216.185c-1.517-5.311-7.055-8.38-12.361-6.865c-5.311,1.517-8.385,7.056-6.867,12.366    c1.255,4.393,5.259,7.255,9.61,7.255c0.909,0,1.834-0.125,2.752-0.387c5.311-1.517,8.386-7.052,6.868-12.362L363.164,216.185z"/>
	</g>
</g>















</svg>
