<?xml version="1.0" encoding="iso-8859-1"?>
<!-- Generator: Adobe Illustrator 19.0.0, SVG Export Plug-In . SVG Version: 6.00 Build 0)  -->
<svg version="1.1" id="Capa_1" xmlns="http://www.w3.org/2000/svg" xmlns:xlink="http://www.w3.org/1999/xlink" x="0px" y="0px"
	 viewBox="0 0 512 512" style="enable-background:new 0 0 512 512;" xml:space="preserve">
<g>
	<g>
		<path d="M295.5,352V56.5h-79v79h64v17h-64v265.271l39.5,79l39.5-79V384h-15v24.5h-17v-241h17V352H295.5z M231.5,120.5v-17H256v-15
			h-24.5v-17h49v49H231.5z M231.5,167.5h17v241h-17V167.5z M275.865,423.5L263.5,448.229V448h-15v0.229L236.135,423.5H275.865z"/>
	</g>
</g>
<g>
	<g>
		<polygon points="423.5,32 423.5,0 312.5,0 312.5,512 423.5,512 423.5,64 408.5,64 408.5,497 327.5,497 327.5,455.5 352,455.5 
			352,440.5 327.5,440.5 327.5,423.5 384,423.5 384,408.5 327.5,408.5 327.5,391.5 352,391.5 352,376.5 327.5,376.5 327.5,359.5 
			384,359.5 384,344.5 327.5,344.5 327.5,327.5 352,327.5 352,312.5 327.5,312.5 327.5,295.5 384,295.5 384,280.5 327.5,280.5 
			327.5,263.5 352,263.5 352,248.5 327.5,248.5 327.5,231.5 384,231.5 384,216.5 327.5,216.5 327.5,199.5 352,199.5 352,184.5 
			327.5,184.5 327.5,167.5 384,167.5 384,152.5 327.5,152.5 327.5,135.5 352,135.5 352,120.5 327.5,120.5 327.5,103.5 384,103.5 
			384,88.5 327.5,88.5 327.5,71.5 352,71.5 352,56.5 327.5,56.5 327.5,15 408.5,15 408.5,32 		"/>
	</g>
</g>
<g>
	<g>
		<path d="M144,168.5c-30.603,0-55.5,24.898-55.5,55.5v112h15V224c0-22.332,18.168-40.5,40.5-40.5c22.332,0,40.5,18.168,40.5,40.5
			v112c0,13.51-10.991,24.5-24.5,24.5c-13.509,0-24.5-10.99-24.5-24.5V224c0-4.686,3.813-8.5,8.5-8.5s8.5,3.814,8.5,8.5v112h15V224
			c0-12.958-10.542-23.5-23.5-23.5s-23.5,10.542-23.5,23.5v112c0,21.78,17.72,39.5,39.5,39.5c21.78,0,39.5-17.72,39.5-39.5V224
			C199.5,193.398,174.603,168.5,144,168.5z"/>
	</g>
</g>
<g>
</g>
<g>
</g>
<g>
</g>
<g>
</g>
<g>
</g>
<g>
</g>
<g>
</g>
<g>
</g>
<g>
</g>
<g>
</g>
<g>
</g>
<g>
</g>
<g>
</g>
<g>
</g>
<g>
</g>
</svg>
