<svg height="480pt" viewBox="0 0 480 480" width="480pt" xmlns="http://www.w3.org/2000/svg"><path d="m208 384v24c0 4.417969 3.582031 8 8 8h48c4.417969 0 8-3.582031 8-8v-24h24c4.417969 0 8-3.582031 8-8v-48c0-4.417969-3.582031-8-8-8h-24v-24c0-4.417969-3.582031-8-8-8h-48c-4.417969 0-8 3.582031-8 8v24h-24c-4.417969 0-8 3.582031-8 8v48c0 4.417969 3.582031 8 8 8zm-16-48h24c4.417969 0 8-3.582031 8-8v-24h32v24c0 4.417969 3.582031 8 8 8h24v32h-24c-4.417969 0-8 3.582031-8 8v24h-32v-24c0-4.417969-3.582031-8-8-8h-24zm0 0"/><path d="m240 448c53.019531 0 96-42.980469 96-96s-42.980469-96-96-96-96 42.980469-96 96c.058594 52.996094 43.003906 95.941406 96 96zm0-176c44.183594 0 80 35.816406 80 80s-35.816406 80-80 80-80-35.816406-80-80c.046875-44.164062 35.835938-79.953125 80-80zm0 0"/><path d="m472 0h-464c-4.417969 0-8 3.582031-8 8v80c0 4.417969 3.582031 8 8 8h24v96h-24c-4.417969 0-8 3.582031-8 8v32c0 4.417969 3.582031 8 8 8h8v232c0 4.417969 3.582031 8 8 8h432c4.417969 0 8-3.582031 8-8v-232h8c4.417969 0 8-3.582031 8-8v-32c0-4.417969-3.582031-8-8-8h-24v-96h24c4.417969 0 8-3.582031 8-8v-80c0-4.417969-3.582031-8-8-8zm-24 464h-416v-224h416zm16-256v16h-448v-16zm-168-96h-112c-4.417969 0-8 3.582031-8 8v72h-128v-96h384v96h-128v-72c0-4.417969-3.582031-8-8-8zm-8 16v64h-96v-64zm176-48h-448v-64h448zm0 0"/><path d="m376 448h48c4.417969 0 8-3.582031 8-8v-40c0-4.417969-3.582031-8-8-8s-8 3.582031-8 8v32h-40c-4.417969 0-8 3.582031-8 8s3.582031 8 8 8zm0 0"/><path d="m424 376c4.417969 0 8-3.582031 8-8v-8c0-4.417969-3.582031-8-8-8s-8 3.582031-8 8v8c0 4.417969 3.582031 8 8 8zm0 0"/><path d="m125.65625 114.34375c-3.125-3.121094-8.1875-3.121094-11.3125 0l-24 24c-2.078125 2.007812-2.914062 4.984375-2.179688 7.78125.730469 2.796875 2.914063 4.980469 5.710938 5.710938 2.796875.734374 5.773438-.101563 7.78125-2.179688l24-24c3.121094-3.125 3.121094-8.1875 0-11.3125zm0 0"/><path d="m138.34375 130.34375-32 32c-2.078125 2.007812-2.914062 4.984375-2.179688 7.78125.730469 2.796875 2.914063 4.980469 5.710938 5.710938 2.796875.734374 5.773438-.101563 7.78125-2.179688l32-32c3.03125-3.140625 2.988281-8.128906-.097656-11.214844-3.085938-3.085937-8.074219-3.128906-11.214844-.097656zm0 0"/><path d="m352 152c2.121094 0 4.15625-.84375 5.65625-2.34375l24-24c3.03125-3.140625 2.988281-8.128906-.097656-11.214844-3.085938-3.085937-8.074219-3.128906-11.214844-.097656l-24 24c-2.285156 2.289062-2.972656 5.730469-1.734375 8.71875s4.15625 4.9375 7.390625 4.9375zm0 0"/><path d="m362.34375 173.65625c3.125 3.121094 8.1875 3.121094 11.3125 0l32-32c3.03125-3.140625 2.988281-8.128906-.097656-11.214844-3.085938-3.085937-8.074219-3.128906-11.214844-.097656l-32 32c-3.121094 3.125-3.121094 8.1875 0 11.3125zm0 0"/></svg>