<svg height="512pt" viewBox="-103 0 512 512" width="512pt" xmlns="http://www.w3.org/2000/svg"><path d="m299.300781 373.5c4.144531 0 7.5-3.355469 7.5-7.5v-20.148438c0-24.28125-12.265625-45.757812-30.933593-58.625 4.742187-3.742187 7.453124-8.417968 7.453124-13.664062 0-10.429688-10.699218-18.609375-26.859374-21.648438 9.878906-13.914062 11.929687-27.734374 4.375-35.292968-2.089844-2.089844-5.863282-4.578125-11.984376-4.578125-.101562 0-.207031.011719-.304687.015625 1.15625-3.660156 2.101563-7.410156 2.828125-11.238282h6.265625c15.886719 0 28.8125-12.832031 28.8125-28.605468v-18.355469c0-10.347656-5.566406-19.433594-13.882813-24.453125v-106.90625c0-12.40625-10.09375-22.5-22.5-22.5h-119.671874c-4.140626 0-7.5 3.355469-7.5 7.5s3.359374 7.5 7.5 7.5h119.671874c4.136719 0 7.5 3.363281 7.5 7.5v102.757812h-4.480468v-43.757812c0-6.925781-5.660156-12.5625-12.613282-12.5625h-48.65625l17.132813-17.132812c2.929687-2.933594 2.929687-7.679688 0-10.609376-2.929687-2.925781-7.679687-2.925781-10.605469 0l-27.742187 27.742188h-11.285157l17.132813-17.132812c2.929687-2.933594 2.929687-7.679688 0-10.609376-2.929687-2.925781-7.679687-2.925781-10.605469 0l-27.742187 27.742188h-11.285157l17.132813-17.132812c2.929687-2.933594 2.929687-7.679688 0-10.609376-2.929687-2.925781-7.679687-2.925781-10.605469 0l-27.742187 27.742188h-39.28125c-6.953125 0-12.613281 5.636719-12.613281 12.5625v43.757812h-4.484376v-102.757812c0-4.136719 3.367188-7.5 7.5-7.5h35.671876c4.144531 0 7.5-3.355469 7.5-7.5s-3.355469-7.5-7.5-7.5h-35.671876c-12.40625 0-22.5 10.09375-22.5 22.5v106.90625c-8.316406 5.019531-13.878906 14.105469-13.878906 24.453125v18.355469c0 15.769531 12.921875 28.601562 28.808594 28.601562h6.269531c3.09375 16.324219 10.246094 31.242188 20.378907 43.683594h-8.105469c-4.296875 0-7.808594 2.046875-9.390625 5.476562-1.582032 3.429688-.859375 7.429688 1.929687 10.695313l11.730469 13.75c-.144531.050781-.28125.117187-.421875.175781h-.027344c-39.4375 0-71.519531 31.964844-71.519531 71.253906v151.234376c0 8.222656 6.703125 14.914062 14.945312 14.914062h276.914063c8.242187 0 14.945313-6.691406 14.945313-14.914062v-94.085938c0-4.144531-3.359376-7.5-7.5-7.5-4.144532 0-7.5 3.355469-7.5 7.5v94h-61.089844v-25h21.589844c6.890624 0 12.5-5.605469 12.5-12.5v-71c0-4.144531-3.359376-7.5-7.5-7.5-4.144532 0-7.5 3.355469-7.5 7.5v68.5h-19.089844v-8.683594c0-7.945312-6.46875-14.414062-14.417969-14.414062h-16.113281v-23.171875c0-6.890625-5.605469-12.5-12.5-12.5h-26.78125v-10.875l11.433594-11.429688c4.589843 1.144531 9.300781 1.730469 14.027343 1.730469 15.445313 0 29.96875-6.015625 40.894531-16.941406 15.007813-15.003906 20.582032-36.980469 14.550782-57.367188-.53125-1.769531-1.5-3.394531-2.804688-4.699218-1.316406-1.3125-2.953125-2.285157-4.71875-2.804688-5.109375-1.515625-10.390625-2.304688-15.703125-2.375l3.304688-3.875h13.398437c31.164063 0 56.519532 25.238281 56.519532 56.257812v20.148438c-.003907 4.144531 3.355468 7.5 7.496093 7.5zm-250.144531-187.683594c-7.617188 0-13.8125-6.101562-13.8125-13.601562v-18.355469c0-7.5 6.195312-13.601563 13.8125-13.601563h4.554688v42.304688c0 1.089844.023437 2.171875.058593 3.253906zm219.167969 87.699219c-.238281 1.085937-3.105469 3.476563-8.621094 5.363281-7.625-2.769531-15.847656-4.28125-24.417969-4.28125h-.601562l7.644531-8.960937c16.9375.0625 25.570313 6.0625 25.996094 7.878906zm-80.785157 47.488281c8.097657-8.09375 18.851563-12.546875 30.289063-12.546875.246094 0 .492187.015625.738281.019531l-43.546875 43.546876c-.195312-11.457032 4.191407-22.6875 12.519531-31.019532zm-10.605468-10.605468c-7.457032 7.457031-12.585938 16.640624-15.117188 26.488281l-9.074218 10.636719-6.816407-6.261719c-2.023437-11.492188-7.511719-22.3125-16.0625-30.863281-9.703125-9.703126-22.246093-15.523438-35.746093-16.707032l-7.414063-6.808594 138.210937-23.945312-30.105468 35.28125c-6.582032 2.859375-12.644532 6.949219-17.875 12.179688zm-55.757813 52.238281c-.246093.003906-.492187.019531-.742187.019531-11.4375 0-22.191406-4.453125-30.285156-12.546875-8.324219-8.328125-12.710938-19.558594-12.515626-31.015625zm-32.945312-54.160157c.246093-.003906.492187-.019531.738281-.019531 11.4375 0 22.191406 4.453125 30.285156 12.546875 8.332032 8.332032 12.71875 19.566406 12.523438 31.019532zm-9.277344-48.976562h77.929687l-67.894531 11.765625zm169.898437-32.460938c.941407 0 1.335938.195313 1.351563.160157.855469 1.394531-.269531 8.660156-7.367187 17.898437-1.152344-.378906-2.398438-.597656-3.734376-.597656h-8.105468c3.890625-4.777344 7.347656-9.921875 10.300781-15.367188 3.042969-1.402343 5.667969-2.09375 7.554687-2.09375zm-180.140624-44.476562v-98.625h169.378906v58.0625c0 4.144531 3.355468 7.5 7.5 7.5 4.140625 0 7.5-3.355469 7.5-7.5v-1.742188h4.554687c7.613281 0 13.808594 6.101563 13.808594 13.601563v18.355469c0 7.5-6.195313 13.605468-13.808594 13.605468h-4.617187c.039062-1.082031.0625-2.167968.0625-3.257812v-4.5625c0-4.144531-3.359375-7.5-7.5-7.5-4.144532 0-7.5 3.355469-7.5 7.5v4.5625c0 24.515625-10.699219 46.601562-27.71875 61.9375h-113.941406c-17.019532-15.335938-27.71875-37.421875-27.71875-61.9375zm53 266.339844v6.039062h-11.515626c-4.140624 0-7.5 3.359375-7.5 7.5 0 4.144532 3.359376 7.5 7.5 7.5h11.515626v6.019532h-11.515626c-4.140624 0-7.5 3.355468-7.5 7.5 0 4.144531 3.359376 7.5 7.5 7.5h11.515626v6.039062h-30.8125v-48.097656zm94 48.097656h-30.8125v-6.039062h11.515624c4.144532 0 7.5-3.355469 7.5-7.5 0-4.144532-3.355468-7.5-7.5-7.5h-11.515624v-6.019532h11.515624c4.144532 0 7.5-3.355468 7.5-7.5 0-4.140625-3.355468-7.5-7.5-7.5h-11.515624v-6.039062h30.8125zm-30.53125-63.097656h-.863282c-7.949218 0-14.417968 6.46875-14.417968 14.414062v7.78125c0 2.296875.554687 4.507813 1.554687 6.480469-1 1.976563-1.554687 4.1875-1.554687 6.484375v7.777344c0 2.296875.554687 4.507812 1.554687 6.480468-1 1.976563-1.554687 4.1875-1.554687 6.484376v7.195312h-33.1875v-7.191406c0-2.296875-.554688-4.511719-1.554688-6.484375 1-1.972657 1.554688-4.183594 1.554688-6.480469v-7.78125c0-2.296875-.554688-4.507812-1.554688-6.480469 1-1.972656 1.554688-4.1875 1.554688-6.480469v-7.78125c0-7.949218-6.46875-14.414062-14.414063-14.414062h-.683594v-20.671875h63.566407zm-66.066407-35.671875c-6.890625 0-12.5 5.609375-12.5 12.5v23.171875h-16.296875c-7.949218 0-14.417968 6.46875-14.417968 14.414062v8.683594h-18.902344v-68.5c0-4.144531-3.355469-7.5-7.5-7.5-4.140625 0-7.5 3.355469-7.5 7.5v71c0 6.894531 5.609375 12.5 12.5 12.5h21.402344v25h-60.902344v-151.148438c0-29.78125 23.375-54.214843 52.816406-56.121093.363281.441406.757812.867187 1.195312 1.273437l4.863282 4.464844c-.445313.121094-.898438.242188-1.34375.371094-1.78125.523437-3.417969 1.496094-4.726563 2.804687-1.320312 1.316407-2.292969 2.953125-2.8125 4.722657-6.027343 20.367187-.453125 42.34375 14.554688 57.351562 10.925781 10.925781 25.445312 16.941406 40.890625 16.941406 4.730468 0 9.4375-.585937 14.03125-1.730468l11.433594 11.429687v10.875h-26.785157zm34.285157-24.585938-8.328126-8.324219c.324219-1.285156.597657-2.578124.828126-3.871093 2.070312 1.457031 4.527343 2.261719 7.082031 2.261719 2.878906 0 5.628906-1.023438 7.820312-2.832032.25 1.484375.554688 2.964844.921875 4.441406zm63.25-23.535156c-8.09375 8.09375-18.847657 12.546875-30.285157 12.546875-.25 0-.496093-.015625-.742187-.019531l43.546875-43.546875c.195312 11.457031-4.191407 22.6875-12.519531 31.019531zm0 0"/><path d="m149.726562 197.90625h12.34375c4.144532 0 7.5-3.355469 7.5-7.5s-3.355468-7.5-7.5-7.5h-9.84375v-31.09375c0-4.144531-3.359374-7.5-7.5-7.5-4.144531 0-7.5 3.355469-7.5 7.5v33.59375c0 6.894531 5.609376 12.5 12.5 12.5zm0 0"/><path d="m178.746094 207.101562c-13.976563 13.839844-36.71875 13.835938-50.691406 0-2.945313-2.917968-7.691407-2.890624-10.609376.050782-2.914062 2.941406-2.890624 7.691406.054688 10.605468 9.898438 9.804688 22.898438 14.703126 35.898438 14.703126s26.007812-4.902344 35.902343-14.703126c2.945313-2.914062 2.96875-7.664062.054688-10.605468-2.917969-2.941406-7.667969-2.96875-10.609375-.050782zm0 0"/><path d="m120.226562 129.511719c1.460938 1.449219 3.371094 2.171875 5.277344 2.171875 1.929688 0 3.859375-.742188 5.328125-2.222656 2.914063-2.945313 2.890625-7.695313-.050781-10.609376-13.902344-13.761718-36.515625-13.761718-50.414062 0-2.945313 2.917969-2.96875 7.664063-.054688 10.609376 2.917969 2.941406 7.664062 2.964843 10.609375.050781 8.078125-8 21.222656-8 29.304687 0zm0 0"/><path d="m186.570312 129.511719c8.078126-8 21.226563-8.003907 29.308594 0 1.460938 1.449219 3.367188 2.171875 5.277344 2.171875 1.929688 0 3.863281-.742188 5.328125-2.226563 2.914063-2.941406 2.890625-7.691406-.054687-10.605469-13.898438-13.761718-36.515626-13.761718-50.414063 0-2.945313 2.914063-2.96875 7.664063-.054687 10.609376 2.917968 2.941406 7.667968 2.964843 10.609374.050781zm0 0"/><path d="m107.164062 136.195312c-4.140624 0-7.5 3.359376-7.5 7.5v20.359376c0 4.140624 3.359376 7.5 7.5 7.5 4.144532 0 7.5-3.359376 7.5-7.5v-20.359376c0-4.140624-3.355468-7.5-7.5-7.5zm0 0"/><path d="m199.632812 136.195312c-4.140624 0-7.5 3.359376-7.5 7.5v20.359376c0 4.140624 3.359376 7.5 7.5 7.5 4.144532 0 7.5-3.359376 7.5-7.5v-20.359376c0-4.140624-3.355468-7.5-7.5-7.5zm0 0"/></svg>