<?xml version="1.0" encoding="iso-8859-1"?>
<!-- Generator: Adobe Illustrator 19.0.0, SVG Export Plug-In . SVG Version: 6.00 Build 0)  -->
<svg version="1.1" id="Capa_1" xmlns="http://www.w3.org/2000/svg" xmlns:xlink="http://www.w3.org/1999/xlink" x="0px" y="0px"
	 viewBox="0 0 512 512" style="enable-background:new 0 0 512 512;" xml:space="preserve">
<g>
	<g>
		<path d="M47.294,0v512h417.412V0H47.294z M434.706,482H77.294V30h357.412V482z"/>
	</g>
</g>
<g>
	<g>
		<path d="M407.167,56H104.833v302.333h302.334L407.167,56L407.167,56z M377.167,328.333H134.833V86h242.334V328.333z"/>
	</g>
</g>
<g>
	<g>
		<path d="M347.352,177.638h8.948v-30h-23.617L322.389,122H189.611l-10.296,25.638H155.7v30h8.946l-13.532,13.383v75.636h17.092
			v7.961c0,8.284,6.716,15,15,15s15-6.716,15-15v-7.962h115.691v7.962c0,8.284,6.716,15,15,15s15-6.716,15-15v-7.962h16.988V191.02
			L347.352,177.638z M209.893,152h92.214l5.849,14.564l-2.467,2.357H268.98h-25.96h-36.509l-2.467-2.357L209.893,152z
			 M330.887,236.656H181.114v-33.112l8.947-8.848l4.422,4.225h48.536h25.961h48.537l4.422-4.224l8.948,8.848V236.656z"/>
	</g>
</g>
<g>
	<g>
		<polygon points="175.648,392.124 175.648,403.3 192.489,403.3 192.489,447.227 205.218,447.227 205.218,403.3 221.981,403.3 
			221.981,392.124 		"/>
	</g>
</g>
<g>
	<g>
		<path d="M249.22,392.124h-11.485l-20.101,55.103h13.038l4.191-12.34h17.151l4.269,12.34h13.038L249.22,392.124z M236.882,426.117
			l6.597-19.48l6.441,19.48H236.882z"/>
	</g>
</g>
<g>
	<g>
		<polygon points="320.545,392.124 306.808,392.124 294.778,411.138 282.749,392.124 268.935,392.124 288.026,420.064 
			269.555,447.227 283.37,447.227 294.778,428.988 306.186,447.227 319.924,447.227 301.453,420.064 		"/>
	</g>
</g>
<g>
	<g>
		<rect x="325.28" y="392.12" width="12.729" height="55.1"/>
	</g>
</g>
<g>
</g>
<g>
</g>
<g>
</g>
<g>
</g>
<g>
</g>
<g>
</g>
<g>
</g>
<g>
</g>
<g>
</g>
<g>
</g>
<g>
</g>
<g>
</g>
<g>
</g>
<g>
</g>
<g>
</g>
</svg>
