<svg height="511pt" viewBox="0 -32 511.998 511" width="511pt" xmlns="http://www.w3.org/2000/svg"><path d="m222.675781 193.832031-.539062-.003906c-18.027344 0-35.703125 7.917969-49.769531 22.300781-13.734376 14.039063-22.769532 33.179688-22.519532 47.691406-.117187 7.0625 1.898438 12.765626 6.003906 16.953126 7.890626 8.0625 21.730469 8.730468 36.425782 8.730468 3.652344 0 7.503906-.058594 11.582031-.117187 4.644531-.066407 9.476563-.132813 14.542969-.128907v11.804688c0 6.894531 5.609375 12.5 12.5 12.5h22.71875v22.941406c0 6.894532 5.605468 12.5 12.5 12.5h27.789062c6.894532 0 12.5-5.605468 12.5-12.5v-22.941406h22.714844c6.894531 0 12.5-5.605469 12.5-12.5v-28.03125c0-6.890625-5.605469-12.5-12.5-12.5h-22.714844v-22.941406c0-6.890625-5.605468-12.5-12.5-12.5h-13.308594c-2.328124-3.136719-4.875-6.152344-7.621093-8.960938-14.066407-14.382812-31.742188-22.300781-49.769531-22.300781zm-4.273437 79.199219v1.226562c-5.160156-.003906-10.066406.0625-14.761719.132813-4.019531.058594-7.816406.113281-11.363281.113281-10.667969 0-22.066406-.503906-25.707032-4.222656-.78125-.796875-1.808593-2.316406-1.722656-6.304688.003906-.105468.003906-.214843 0-.324218-.195312-8.9375 6.003906-24.527344 18.242188-37.035156 7.9375-8.113282 21.152344-17.789063 39.046875-17.789063l.464843.003906h.144532l.464844-.003906c17.40625 0 30.378906 9.15625 38.378906 17.125-4.65625 1.820313-7.96875 6.34375-7.96875 11.640625v22.9375h-22.71875c-6.890625 0-12.5 5.609375-12.5 12.5zm85.507812 2.5h22.714844v23.03125h-22.714844c-6.890625 0-12.5 5.609375-12.5 12.5v22.941406h-22.789062v-22.941406c0-6.890625-5.609375-12.5-12.5-12.5h-22.71875v-23.03125h22.71875c6.890625 0 12.5-5.605469 12.5-12.5v-22.941406h22.789062v22.941406c0 6.894531 5.609375 12.5 12.5 12.5zm0 0"/><path d="m278.128906 203.011719c4.253906 4.007812 9.9375 6.21875 16.007813 6.21875 7.410156 0 14.734375-3.261719 20.097656-8.949219 10.109375-10.734375 10.375-26.972656.585937-36.203125-4.253906-4.011719-9.9375-6.21875-16.007812-6.21875-7.410156 0-14.734375 3.261719-20.09375 8.949219-10.117188 10.738281-10.378906 26.976562-.589844 36.203125zm11.507813-25.917969c2.535156-2.691406 5.878906-4.234375 9.175781-4.234375 1.578125 0 3.847656.371094 5.71875 2.132813 3.769531 3.558593 3.226562 10.289062-1.214844 15-2.539062 2.695312-5.882812 4.238281-9.179687 4.238281-1.574219 0-3.847657-.371094-5.71875-2.136719-3.773438-3.554688-3.226563-10.285156 1.21875-15zm0 0"/><path d="m254.234375 131.785156c-1.742187-.421875-3.53125-.636718-5.324219-.636718-11.558594 0-21.722656 8.578124-24.710937 20.863281-3.480469 14.332031 4.316406 28.582031 17.390625 31.761719 1.738281.421874 3.527344.636718 5.3125.636718 11.5625 0 21.722656-8.578125 24.714844-20.859375 3.484374-14.335937-4.3125-28.582031-17.382813-31.765625zm2.808594 28.214844c-1.328125 5.453125-5.59375 9.410156-10.140625 9.410156-.59375 0-1.191406-.070312-1.769532-.210937-5.035156-1.226563-7.886718-7.347657-6.355468-13.644531 1.324218-5.449219 5.589844-9.40625 10.136718-9.40625.59375 0 1.191407.070312 1.773438.210937 5.035156 1.226563 7.886719 7.347656 6.355469 13.640625zm0 0"/><path d="m191.800781 132.8125c-2.097656 0-4.179687.289062-6.191406.867188-12.933594 3.699218-20.160156 18.246093-16.105469 32.429687 3.34375 11.707031 13.46875 19.882813 24.617188 19.882813 2.097656 0 4.179687-.292969 6.191406-.867188 12.933594-3.703125 20.160156-18.25 16.105469-32.429688-3.34375-11.707031-13.464844-19.882812-24.617188-19.882812zm4.386719 37.890625c-.671875.191406-1.367188.289063-2.066406.289063-4.417969 0-8.703125-3.789063-10.195313-9.003907-1.78125-6.234375.824219-12.460937 5.808594-13.886719.671875-.191406 1.367187-.289062 2.066406-.289062 4.417969 0 8.707031 3.785156 10.195313 9.003906 1.78125 6.230469-.824219 12.460938-5.808594 13.886719zm0 0"/><path d="m143.648438 162.394531c-6.464844 0-12.414063 2.4375-16.753907 6.871094-9.414062 9.609375-8.503906 25.828125 2.027344 36.152344 5.292969 5.1875 12.375 8.160156 19.429687 8.160156 6.464844 0 12.414063-2.4375 16.753907-6.871094 9.410156-9.609375 8.5-25.828125-2.03125-36.152343-5.289063-5.1875-12.371094-8.160157-19.425781-8.160157zm10.742187 33.820313c-1.917969 1.953125-4.339844 2.363281-6.039063 2.363281-3.160156 0-6.414062-1.410156-8.929687-3.875-4.625-4.535156-5.4375-11.238281-1.8125-14.945313 1.917969-1.953124 4.34375-2.363281 6.039063-2.363281 3.160156 0 6.414062 1.410157 8.925781 3.871094 4.628906 4.539063 5.441406 11.242187 1.816406 14.949219zm0 0"/><path d="m474.28125 244.328125v-29.59375c0-6.820313-5.496094-12.375-12.292969-12.488281v-35.054688c0-4.144531-3.355469-7.5-7.5-7.5-4.140625 0-7.5 3.355469-7.5 7.5v35.042969h-12.71875v-93.476563c0-6.890624-5.605469-12.5-12.5-12.5h-381.546875c-6.894531 0-12.5 5.609376-12.5 12.5v257.011719c0 6.890625 5.605469 12.5 12.5 12.5h51.777344c4.144531 0 7.5-3.359375 7.5-7.5 0-4.144531-3.355469-7.5-7.5-7.5h-49.277344v-252.011719h376.546875v90.976563h-1.675781c-6.894531 0-12.5 5.609375-12.5 12.5v29.59375c-22.023438 8.402344-37.71875 29.742187-37.71875 54.691406v64.25h-238.375c-4.144531 0-7.5 3.355469-7.5 7.5 0 4.140625 3.355469 7.5 7.5 7.5h238.375v12.652344h-332.558594c-10.925781 0-19.816406-8.902344-19.816406-19.847656v-274.210938c0-7.3125 5.96875-13.257812 13.308594-13.257812h405.371094c7.339843 0 13.3125 5.945312 13.3125 13.257812v33.328125c0 4.144532 3.355468 7.5 7.5 7.5 4.140624 0 7.5-3.355468 7.5-7.5v-33.328125c0-15.582031-12.699219-28.257812-28.3125-28.257812h-11.464844v-8.117188c0-6.894531-5.605469-12.5-12.5-12.5h-61.433594c-6.890625 0-12.5 5.605469-12.5 12.5v8.117188h-14.949219v-34.332031c0-18.621094-15.148437-33.773438-33.769531-33.773438h-112.136719c-18.617187 0-33.769531 15.152344-33.769531 33.773438v34.332031h-14.949219v-8.117188c0-6.894531-5.605469-12.5-12.5-12.5h-61.433593c-6.890626 0-12.5 5.605469-12.5 12.5v8.117188h-11.464844c-15.609375 0-28.308594 12.675781-28.308594 28.257812v274.210938c0 19.214843 15.617188 34.847656 34.816406 34.847656h7.144532v9.78125c0 6.894531 5.605468 12.5 12.5 12.5h76.015624c6.890626 0 12.5-5.605469 12.5-12.5v-9.78125h176.035157v9.78125c0 6.894531 5.609375 12.5 12.5 12.5h35.863281v6.867187c0 7.0625 5.746094 12.8125 12.808594 12.8125h119.003906c7.0625 0 12.808594-5.746093 12.808594-12.8125v-136.050781c.003906-24.949219-15.6875-46.289062-37.714844-54.691406zm-198.757812-175.722656h-89.058594v-22.789063h89.058594zm75.257812-5.617188h56.433594v5.617188h-56.433594zm-194.625-28.714843c0-10.351563 8.421875-18.773438 18.769531-18.773438h112.140625c10.347656 0 18.765625 8.421875 18.765625 18.773438v34.332031h-15.308593v-30.289063c0-4.140625-3.355469-7.5-7.5-7.5h-104.054688c-4.144531 0-7.5 3.359375-7.5 7.5v30.289063h-15.3125zm-101.382812 28.714843h56.433593v5.617188h-56.433593zm365.320312 154.246094h39.1875v23.554687c-1.902344-.1875-3.828125-.289062-5.78125-.289062h-27.625c-1.949219 0-3.878906.101562-5.78125.289062zm5.78125 38.265625h27.625c23.984375 0 43.5 19.523438 43.5 43.519531v11.632813h-114.625v-11.632813c0-23.996093 19.515625-43.519531 43.5-43.519531zm-297.898438 157.703125h-71.015624v-7.28125h71.015624zm206.039063 0v-7.28125h33.359375v7.28125zm48.359375 19.679687v-34.957031h65.625c4.144531 0 7.5-3.359375 7.5-7.5 0-4.144531-3.355469-7.5-7.5-7.5h-65.625v-57.277343h114.625v57.277343h-13c-4.144531 0-7.5 3.355469-7.5 7.5 0 4.140625 3.355469 7.5 7.5 7.5h13v34.957031zm0 0"/><path d="m456.355469 339.90625h-33.339844c-4.140625 0-7.5 3.355469-7.5 7.5s3.359375 7.5 7.5 7.5h33.339844c4.144531 0 7.5-3.355469 7.5-7.5s-3.355469-7.5-7.5-7.5zm0 0"/></svg>